<svg 
  xmlns="http://www.w3.org/2000/svg" 
  viewBox="0 0 700 700" 
  width="100" height="100"
>
  <defs></defs>
  
  <rect x="0" y="0" width="300" height="300" fill="#fff"></rect>
  <g>
        
    <g stroke="#333333" stroke-width="2" stroke-linecap="round" opacity="0.25">
      <line x1="0" y1="0" x2="23.333333333333332" y2="11.666666666666666"></line><line x1="23.333333333333332" y1="11.666666666666666" x2="0" y2="23.333333333333332"></line><line x1="0" y1="46.666666666666664" x2="23.333333333333332" y2="58.33333333333333"></line><line x1="0" y1="58.33333333333333" x2="23.333333333333332" y2="70"></line><line stroke-dasharray="11.666666666666666 70" x1="0" y1="93.33333333333334" x2="23.333333333333332" y2="105.00000000000001"></line><line x1="0" y1="105.00000000000001" x2="23.333333333333332" y2="116.66666666666669"></line><line x1="0" y1="116.66666666666669" x2="23.333333333333332" y2="128.33333333333334"></line><line x1="0" y1="128.33333333333334" x2="23.333333333333332" y2="140"></line><line x1="23.333333333333332" y1="140" x2="0" y2="151.66666666666666"></line><line x1="0" y1="151.66666666666666" x2="23.333333333333332" y2="163.33333333333331"></line><line x1="0" y1="163.33333333333331" x2="23.333333333333332" y2="174.99999999999997"></line><line x1="23.333333333333332" y1="174.99999999999997" x2="0" y2="186.66666666666663"></line><line x1="0" y1="198.3333333333333" x2="23.333333333333332" y2="209.99999999999994"></line><line stroke-dasharray="11.666666666666666 70" x1="0" y1="209.99999999999994" x2="23.333333333333332" y2="221.6666666666666"></line><line x1="23.333333333333332" y1="221.6666666666666" x2="0" y2="233.33333333333326"></line><line stroke-dasharray="11.666666666666666 70" x1="0" y1="233.33333333333326" x2="23.333333333333332" y2="244.99999999999991"></line><line x1="23.333333333333332" y1="279.99999999999994" x2="0" y2="291.66666666666663"></line><line x1="0" y1="303.3333333333333" x2="23.333333333333332" y2="315"></line><line stroke-dasharray="11.666666666666666 70" x1="23.333333333333332" y1="315" x2="0" y2="326.6666666666667"></line><line x1="0" y1="361.66666666666674" x2="23.333333333333332" y2="373.3333333333334"></line><line stroke-dasharray="11.666666666666666 70" x1="23.333333333333332" y1="373.3333333333334" x2="0" y2="385.0000000000001"></line><line stroke-dasharray="11.666666666666666 70" x1="0" y1="385.0000000000001" x2="23.333333333333332" y2="396.6666666666668"></line><line x1="23.333333333333332" y1="408.3333333333335" x2="0" y2="420.00000000000017"></line><line x1="0" y1="420.00000000000017" x2="23.333333333333332" y2="431.66666666666686"></line><line x1="0" y1="431.66666666666686" x2="23.333333333333332" y2="443.33333333333354"></line><line x1="0" y1="455.0000000000002" x2="23.333333333333332" y2="466.6666666666669"></line><line x1="0" y1="478.3333333333336" x2="23.333333333333332" y2="490.0000000000003"></line><line x1="0" y1="525.0000000000002" x2="23.333333333333332" y2="536.6666666666669"></line><line x1="23.333333333333332" y1="536.6666666666669" x2="0" y2="548.3333333333335"></line><line x1="23.333333333333332" y1="548.3333333333335" x2="0" y2="560.0000000000001"></line><line x1="0" y1="560.0000000000001" x2="23.333333333333332" y2="571.6666666666667"></line><line x1="0" y1="583.3333333333334" x2="23.333333333333332" y2="595"></line><line x1="0" y1="595" x2="23.333333333333332" y2="606.6666666666666"></line><line x1="0" y1="618.3333333333333" x2="23.333333333333332" y2="629.9999999999999"></line><line stroke-dasharray="11.666666666666666 70" x1="23.333333333333332" y1="641.6666666666665" x2="0" y2="653.3333333333331"></line><line x1="0" y1="653.3333333333331" x2="23.333333333333332" y2="664.9999999999998"></line><line x1="23.333333333333332" y1="664.9999999999998" x2="0" y2="676.6666666666664"></line><line x1="23.333333333333332" y1="676.6666666666664" x2="0" y2="688.333333333333"></line><line stroke-dasharray="11.666666666666666 70" x1="23.333333333333332" y1="688.333333333333" x2="0" y2="699.9999999999997"></line><line x1="46.666666666666664" y1="23.333333333333332" x2="23.333333333333332" y2="35"></line><line x1="46.666666666666664" y1="35" x2="23.333333333333332" y2="46.666666666666664"></line><line x1="23.333333333333332" y1="46.666666666666664" x2="46.666666666666664" y2="58.33333333333333"></line><line x1="23.333333333333332" y1="70" x2="46.666666666666664" y2="81.66666666666667"></line><line x1="23.333333333333332" y1="128.33333333333334" x2="46.666666666666664" y2="140"></line><line x1="23.333333333333332" y1="140" x2="46.666666666666664" y2="151.66666666666666"></line><line x1="46.666666666666664" y1="174.99999999999997" x2="23.333333333333332" y2="186.66666666666663"></line><line x1="23.333333333333332" y1="186.66666666666663" x2="46.666666666666664" y2="198.3333333333333"></line><line x1="23.333333333333332" y1="268.33333333333326" x2="46.666666666666664" y2="279.99999999999994"></line><line x1="23.333333333333332" y1="303.3333333333333" x2="46.666666666666664" y2="315"></line><line x1="23.333333333333332" y1="315" x2="46.666666666666664" y2="326.6666666666667"></line><line stroke-dasharray="11.666666666666666 70" x1="46.666666666666664" y1="338.33333333333337" x2="23.333333333333332" y2="350.00000000000006"></line><line stroke-dasharray="11.666666666666666 70" x1="23.333333333333332" y1="350.00000000000006" x2="46.666666666666664" y2="361.66666666666674"></line><line x1="23.333333333333332" y1="373.3333333333334" x2="46.666666666666664" y2="385.0000000000001"></line><line x1="23.333333333333332" y1="385.0000000000001" x2="46.666666666666664" y2="396.6666666666668"></line><line x1="23.333333333333332" y1="408.3333333333335" x2="46.666666666666664" y2="420.00000000000017"></line><line x1="23.333333333333332" y1="420.00000000000017" x2="46.666666666666664" y2="431.66666666666686"></line><line x1="23.333333333333332" y1="431.66666666666686" x2="46.666666666666664" y2="443.33333333333354"></line><line x1="23.333333333333332" y1="443.33333333333354" x2="46.666666666666664" y2="455.0000000000002"></line><line x1="23.333333333333332" y1="466.6666666666669" x2="46.666666666666664" y2="478.3333333333336"></line><line x1="23.333333333333332" y1="490.0000000000003" x2="46.666666666666664" y2="501.66666666666697"></line><line x1="23.333333333333332" y1="548.3333333333335" x2="46.666666666666664" y2="560.0000000000001"></line><line x1="46.666666666666664" y1="560.0000000000001" x2="23.333333333333332" y2="571.6666666666667"></line><line x1="23.333333333333332" y1="571.6666666666667" x2="46.666666666666664" y2="583.3333333333334"></line><line x1="46.666666666666664" y1="583.3333333333334" x2="23.333333333333332" y2="595"></line><line stroke-dasharray="11.666666666666666 70" x1="23.333333333333332" y1="595" x2="46.666666666666664" y2="606.6666666666666"></line><line x1="46.666666666666664" y1="618.3333333333333" x2="23.333333333333332" y2="629.9999999999999"></line><line x1="23.333333333333332" y1="676.6666666666664" x2="46.666666666666664" y2="688.333333333333"></line><line x1="23.333333333333332" y1="688.333333333333" x2="46.666666666666664" y2="699.9999999999997"></line><line x1="46.666666666666664" y1="11.666666666666666" x2="70" y2="23.333333333333332"></line><line x1="46.666666666666664" y1="23.333333333333332" x2="70" y2="35"></line><line x1="70" y1="46.666666666666664" x2="46.666666666666664" y2="58.33333333333333"></line><line x1="46.666666666666664" y1="58.33333333333333" x2="70" y2="70"></line><line x1="46.666666666666664" y1="81.66666666666667" x2="70" y2="93.33333333333334"></line><line x1="70" y1="151.66666666666666" x2="46.666666666666664" y2="163.33333333333331"></line><line x1="46.666666666666664" y1="163.33333333333331" x2="70" y2="174.99999999999997"></line><line x1="46.666666666666664" y1="174.99999999999997" x2="70" y2="186.66666666666663"></line><line x1="70" y1="198.3333333333333" x2="46.666666666666664" y2="209.99999999999994"></line><line stroke-dasharray="11.666666666666666 70" x1="70" y1="221.6666666666666" x2="46.666666666666664" y2="233.33333333333326"></line><line stroke-dasharray="11.666666666666666 70" x1="70" y1="233.33333333333326" x2="46.666666666666664" y2="244.99999999999991"></line><line x1="46.666666666666664" y1="256.6666666666666" x2="70" y2="268.33333333333326"></line><line x1="46.666666666666664" y1="303.3333333333333" x2="70" y2="315"></line><line x1="46.666666666666664" y1="326.6666666666667" x2="70" y2="338.33333333333337"></line><line x1="46.666666666666664" y1="350.00000000000006" x2="70" y2="361.66666666666674"></line><line stroke-dasharray="11.666666666666666 70" x1="70" y1="373.3333333333334" x2="46.666666666666664" y2="385.0000000000001"></line><line x1="46.666666666666664" y1="420.00000000000017" x2="70" y2="431.66666666666686"></line><line stroke-dasharray="11.666666666666666 70" x1="46.666666666666664" y1="455.0000000000002" x2="70" y2="466.6666666666669"></line><line x1="46.666666666666664" y1="478.3333333333336" x2="70" y2="490.0000000000003"></line><line x1="46.666666666666664" y1="490.0000000000003" x2="70" y2="501.66666666666697"></line><line x1="70" y1="548.3333333333335" x2="46.666666666666664" y2="560.0000000000001"></line><line x1="46.666666666666664" y1="606.6666666666666" x2="70" y2="618.3333333333333"></line><line x1="46.666666666666664" y1="618.3333333333333" x2="70" y2="629.9999999999999"></line><line x1="46.666666666666664" y1="629.9999999999999" x2="70" y2="641.6666666666665"></line><line x1="46.666666666666664" y1="641.6666666666665" x2="70" y2="653.3333333333331"></line><line x1="46.666666666666664" y1="664.9999999999998" x2="70" y2="676.6666666666664"></line><line x1="46.666666666666664" y1="676.6666666666664" x2="70" y2="688.333333333333"></line><line x1="93.33333333333333" y1="23.333333333333332" x2="70" y2="35"></line><line stroke-dasharray="11.666666666666666 70" x1="93.33333333333333" y1="35" x2="70" y2="46.666666666666664"></line><line x1="70" y1="58.33333333333333" x2="93.33333333333333" y2="70"></line><line x1="93.33333333333333" y1="81.66666666666667" x2="70" y2="93.33333333333334"></line><line stroke-dasharray="11.666666666666666 70" x1="70" y1="116.66666666666669" x2="93.33333333333333" y2="128.33333333333334"></line><line x1="93.33333333333333" y1="198.3333333333333" x2="70" y2="209.99999999999994"></line><line stroke-dasharray="11.666666666666666 70" x1="70" y1="221.6666666666666" x2="93.33333333333333" y2="233.33333333333326"></line><line stroke-dasharray="11.666666666666666 70" x1="70" y1="233.33333333333326" x2="93.33333333333333" y2="244.99999999999991"></line><line x1="93.33333333333333" y1="244.99999999999991" x2="70" y2="256.6666666666666"></line><line x1="70" y1="268.33333333333326" x2="93.33333333333333" y2="279.99999999999994"></line><line x1="70" y1="279.99999999999994" x2="93.33333333333333" y2="291.66666666666663"></line><line stroke-dasharray="11.666666666666666 70" x1="70" y1="291.66666666666663" x2="93.33333333333333" y2="303.3333333333333"></line><line x1="70" y1="315" x2="93.33333333333333" y2="326.6666666666667"></line><line stroke-dasharray="11.666666666666666 70" x1="70" y1="326.6666666666667" x2="93.33333333333333" y2="338.33333333333337"></line><line x1="70" y1="338.33333333333337" x2="93.33333333333333" y2="350.00000000000006"></line><line x1="70" y1="350.00000000000006" x2="93.33333333333333" y2="361.66666666666674"></line><line x1="70" y1="373.3333333333334" x2="93.33333333333333" y2="385.0000000000001"></line><line stroke-dasharray="11.666666666666666 70" x1="70" y1="396.6666666666668" x2="93.33333333333333" y2="408.3333333333335"></line><line x1="93.33333333333333" y1="408.3333333333335" x2="70" y2="420.00000000000017"></line><line x1="70" y1="431.66666666666686" x2="93.33333333333333" y2="443.33333333333354"></line><line stroke-dasharray="11.666666666666666 70" x1="70" y1="443.33333333333354" x2="93.33333333333333" y2="455.0000000000002"></line><line stroke-dasharray="11.666666666666666 70" x1="93.33333333333333" y1="455.0000000000002" x2="70" y2="466.6666666666669"></line><line stroke-dasharray="11.666666666666666 70" x1="70" y1="466.6666666666669" x2="93.33333333333333" y2="478.3333333333336"></line><line x1="70" y1="478.3333333333336" x2="93.33333333333333" y2="490.0000000000003"></line><line x1="70" y1="513.3333333333336" x2="93.33333333333333" y2="525.0000000000002"></line><line x1="70" y1="536.6666666666669" x2="93.33333333333333" y2="548.3333333333335"></line><line x1="70" y1="548.3333333333335" x2="93.33333333333333" y2="560.0000000000001"></line><line x1="93.33333333333333" y1="571.6666666666667" x2="70" y2="583.3333333333334"></line><line x1="70" y1="618.3333333333333" x2="93.33333333333333" y2="629.9999999999999"></line><line x1="70" y1="664.9999999999998" x2="93.33333333333333" y2="676.6666666666664"></line><line x1="70" y1="676.6666666666664" x2="93.33333333333333" y2="688.333333333333"></line><line x1="93.33333333333333" y1="0" x2="116.66666666666666" y2="11.666666666666666"></line><line stroke-dasharray="11.666666666666666 70" x1="93.33333333333333" y1="11.666666666666666" x2="116.66666666666666" y2="23.333333333333332"></line><line x1="93.33333333333333" y1="46.666666666666664" x2="116.66666666666666" y2="58.33333333333333"></line><line x1="93.33333333333333" y1="70" x2="116.66666666666666" y2="81.66666666666667"></line><line x1="93.33333333333333" y1="81.66666666666667" x2="116.66666666666666" y2="93.33333333333334"></line><line x1="93.33333333333333" y1="93.33333333333334" x2="116.66666666666666" y2="105.00000000000001"></line><line x1="93.33333333333333" y1="128.33333333333334" x2="116.66666666666666" y2="140"></line><line stroke-dasharray="11.666666666666666 70" x1="93.33333333333333" y1="151.66666666666666" x2="116.66666666666666" y2="163.33333333333331"></line><line x1="116.66666666666666" y1="186.66666666666663" x2="93.33333333333333" y2="198.3333333333333"></line><line x1="93.33333333333333" y1="221.6666666666666" x2="116.66666666666666" y2="233.33333333333326"></line><line x1="116.66666666666666" y1="233.33333333333326" x2="93.33333333333333" y2="244.99999999999991"></line><line stroke-dasharray="11.666666666666666 70" x1="116.66666666666666" y1="244.99999999999991" x2="93.33333333333333" y2="256.6666666666666"></line><line x1="93.33333333333333" y1="256.6666666666666" x2="116.66666666666666" y2="268.33333333333326"></line><line stroke-dasharray="11.666666666666666 70" x1="93.33333333333333" y1="268.33333333333326" x2="116.66666666666666" y2="279.99999999999994"></line><line x1="93.33333333333333" y1="338.33333333333337" x2="116.66666666666666" y2="350.00000000000006"></line><line x1="93.33333333333333" y1="373.3333333333334" x2="116.66666666666666" y2="385.0000000000001"></line><line x1="116.66666666666666" y1="385.0000000000001" x2="93.33333333333333" y2="396.6666666666668"></line><line x1="93.33333333333333" y1="396.6666666666668" x2="116.66666666666666" y2="408.3333333333335"></line><line x1="93.33333333333333" y1="431.66666666666686" x2="116.66666666666666" y2="443.33333333333354"></line><line x1="93.33333333333333" y1="443.33333333333354" x2="116.66666666666666" y2="455.0000000000002"></line><line x1="93.33333333333333" y1="455.0000000000002" x2="116.66666666666666" y2="466.6666666666669"></line><line x1="93.33333333333333" y1="490.0000000000003" x2="116.66666666666666" y2="501.66666666666697"></line><line x1="116.66666666666666" y1="513.3333333333336" x2="93.33333333333333" y2="525.0000000000002"></line><line x1="93.33333333333333" y1="525.0000000000002" x2="116.66666666666666" y2="536.6666666666669"></line><line stroke-dasharray="11.666666666666666 70" x1="116.66666666666666" y1="536.6666666666669" x2="93.33333333333333" y2="548.3333333333335"></line><line x1="93.33333333333333" y1="571.6666666666667" x2="116.66666666666666" y2="583.3333333333334"></line><line x1="93.33333333333333" y1="595" x2="116.66666666666666" y2="606.6666666666666"></line><line stroke-dasharray="11.666666666666666 70" x1="93.33333333333333" y1="606.6666666666666" x2="116.66666666666666" y2="618.3333333333333"></line><line x1="93.33333333333333" y1="629.9999999999999" x2="116.66666666666666" y2="641.6666666666665"></line><line stroke-dasharray="11.666666666666666 70" x1="116.66666666666666" y1="46.666666666666664" x2="140" y2="58.33333333333333"></line><line x1="140" y1="58.33333333333333" x2="116.66666666666666" y2="70"></line><line x1="116.66666666666666" y1="81.66666666666667" x2="140" y2="93.33333333333334"></line><line x1="140" y1="93.33333333333334" x2="116.66666666666666" y2="105.00000000000001"></line><line x1="116.66666666666666" y1="116.66666666666669" x2="140" y2="128.33333333333334"></line><line x1="116.66666666666666" y1="140" x2="140" y2="151.66666666666666"></line><line x1="116.66666666666666" y1="151.66666666666666" x2="140" y2="163.33333333333331"></line><line x1="116.66666666666666" y1="163.33333333333331" x2="140" y2="174.99999999999997"></line><line x1="116.66666666666666" y1="198.3333333333333" x2="140" y2="209.99999999999994"></line><line x1="140" y1="221.6666666666666" x2="116.66666666666666" y2="233.33333333333326"></line><line stroke-dasharray="11.666666666666666 70" x1="140" y1="233.33333333333326" x2="116.66666666666666" y2="244.99999999999991"></line><line x1="140" y1="279.99999999999994" x2="116.66666666666666" y2="291.66666666666663"></line><line x1="140" y1="291.66666666666663" x2="116.66666666666666" y2="303.3333333333333"></line><line stroke-dasharray="11.666666666666666 70" x1="116.66666666666666" y1="315" x2="140" y2="326.6666666666667"></line><line x1="140" y1="338.33333333333337" x2="116.66666666666666" y2="350.00000000000006"></line><line x1="140" y1="373.3333333333334" x2="116.66666666666666" y2="385.0000000000001"></line><line x1="140" y1="385.0000000000001" x2="116.66666666666666" y2="396.6666666666668"></line><line x1="140" y1="396.6666666666668" x2="116.66666666666666" y2="408.3333333333335"></line><line stroke-dasharray="11.666666666666666 70" x1="116.66666666666666" y1="443.33333333333354" x2="140" y2="455.0000000000002"></line><line x1="116.66666666666666" y1="455.0000000000002" x2="140" y2="466.6666666666669"></line><line x1="116.66666666666666" y1="466.6666666666669" x2="140" y2="478.3333333333336"></line><line x1="140" y1="560.0000000000001" x2="116.66666666666666" y2="571.6666666666667"></line><line x1="140" y1="571.6666666666667" x2="116.66666666666666" y2="583.3333333333334"></line><line stroke-dasharray="11.666666666666666 70" x1="116.66666666666666" y1="583.3333333333334" x2="140" y2="595"></line><line x1="140" y1="595" x2="116.66666666666666" y2="606.6666666666666"></line><line stroke-dasharray="11.666666666666666 70" x1="140" y1="618.3333333333333" x2="116.66666666666666" y2="629.9999999999999"></line><line x1="140" y1="653.3333333333331" x2="116.66666666666666" y2="664.9999999999998"></line><line x1="140" y1="23.333333333333332" x2="163.33333333333334" y2="35"></line><line x1="140" y1="35" x2="163.33333333333334" y2="46.666666666666664"></line><line stroke-dasharray="11.666666666666666 70" x1="163.33333333333334" y1="70" x2="140" y2="81.66666666666667"></line><line x1="163.33333333333334" y1="93.33333333333334" x2="140" y2="105.00000000000001"></line><line stroke-dasharray="11.666666666666666 70" x1="163.33333333333334" y1="105.00000000000001" x2="140" y2="116.66666666666669"></line><line x1="140" y1="128.33333333333334" x2="163.33333333333334" y2="140"></line><line x1="140" y1="140" x2="163.33333333333334" y2="151.66666666666666"></line><line x1="140" y1="163.33333333333331" x2="163.33333333333334" y2="174.99999999999997"></line><line stroke-dasharray="11.666666666666666 70" x1="163.33333333333334" y1="198.3333333333333" x2="140" y2="209.99999999999994"></line><line stroke-dasharray="11.666666666666666 70" x1="140" y1="221.6666666666666" x2="163.33333333333334" y2="233.33333333333326"></line><line x1="140" y1="233.33333333333326" x2="163.33333333333334" y2="244.99999999999991"></line><line stroke-dasharray="11.666666666666666 70" x1="163.33333333333334" y1="244.99999999999991" x2="140" y2="256.6666666666666"></line><line x1="140" y1="256.6666666666666" x2="163.33333333333334" y2="268.33333333333326"></line><line x1="163.33333333333334" y1="279.99999999999994" x2="140" y2="291.66666666666663"></line><line x1="140" y1="303.3333333333333" x2="163.33333333333334" y2="315"></line><line x1="140" y1="338.33333333333337" x2="163.33333333333334" y2="350.00000000000006"></line><line x1="140" y1="373.3333333333334" x2="163.33333333333334" y2="385.0000000000001"></line><line stroke-dasharray="11.666666666666666 70" x1="140" y1="408.3333333333335" x2="163.33333333333334" y2="420.00000000000017"></line><line x1="140" y1="420.00000000000017" x2="163.33333333333334" y2="431.66666666666686"></line><line stroke-dasharray="11.666666666666666 70" x1="140" y1="431.66666666666686" x2="163.33333333333334" y2="443.33333333333354"></line><line x1="140" y1="443.33333333333354" x2="163.33333333333334" y2="455.0000000000002"></line><line x1="140" y1="466.6666666666669" x2="163.33333333333334" y2="478.3333333333336"></line><line x1="163.33333333333334" y1="478.3333333333336" x2="140" y2="490.0000000000003"></line><line x1="140" y1="490.0000000000003" x2="163.33333333333334" y2="501.66666666666697"></line><line x1="140" y1="525.0000000000002" x2="163.33333333333334" y2="536.6666666666669"></line><line x1="140" y1="560.0000000000001" x2="163.33333333333334" y2="571.6666666666667"></line><line x1="140" y1="571.6666666666667" x2="163.33333333333334" y2="583.3333333333334"></line><line x1="140" y1="583.3333333333334" x2="163.33333333333334" y2="595"></line><line x1="140" y1="606.6666666666666" x2="163.33333333333334" y2="618.3333333333333"></line><line x1="140" y1="618.3333333333333" x2="163.33333333333334" y2="629.9999999999999"></line><line x1="140" y1="629.9999999999999" x2="163.33333333333334" y2="641.6666666666665"></line><line x1="163.33333333333334" y1="688.333333333333" x2="140" y2="699.9999999999997"></line><line x1="163.33333333333334" y1="23.333333333333332" x2="186.66666666666669" y2="35"></line><line x1="186.66666666666669" y1="35" x2="163.33333333333334" y2="46.666666666666664"></line><line stroke-dasharray="11.666666666666666 70" x1="163.33333333333334" y1="46.666666666666664" x2="186.66666666666669" y2="58.33333333333333"></line><line x1="186.66666666666669" y1="70" x2="163.33333333333334" y2="81.66666666666667"></line><line x1="163.33333333333334" y1="105.00000000000001" x2="186.66666666666669" y2="116.66666666666669"></line><line x1="163.33333333333334" y1="116.66666666666669" x2="186.66666666666669" y2="128.33333333333334"></line><line x1="163.33333333333334" y1="198.3333333333333" x2="186.66666666666669" y2="209.99999999999994"></line><line stroke-dasharray="11.666666666666666 70" x1="186.66666666666669" y1="209.99999999999994" x2="163.33333333333334" y2="221.6666666666666"></line><line x1="186.66666666666669" y1="233.33333333333326" x2="163.33333333333334" y2="244.99999999999991"></line><line x1="186.66666666666669" y1="244.99999999999991" x2="163.33333333333334" y2="256.6666666666666"></line><line x1="163.33333333333334" y1="268.33333333333326" x2="186.66666666666669" y2="279.99999999999994"></line><line x1="186.66666666666669" y1="315" x2="163.33333333333334" y2="326.6666666666667"></line><line x1="163.33333333333334" y1="350.00000000000006" x2="186.66666666666669" y2="361.66666666666674"></line><line x1="163.33333333333334" y1="373.3333333333334" x2="186.66666666666669" y2="385.0000000000001"></line><line stroke-dasharray="11.666666666666666 70" x1="163.33333333333334" y1="385.0000000000001" x2="186.66666666666669" y2="396.6666666666668"></line><line x1="163.33333333333334" y1="443.33333333333354" x2="186.66666666666669" y2="455.0000000000002"></line><line stroke-dasharray="11.666666666666666 70" x1="163.33333333333334" y1="455.0000000000002" x2="186.66666666666669" y2="466.6666666666669"></line><line x1="186.66666666666669" y1="478.3333333333336" x2="163.33333333333334" y2="490.0000000000003"></line><line x1="163.33333333333334" y1="513.3333333333336" x2="186.66666666666669" y2="525.0000000000002"></line><line x1="163.33333333333334" y1="548.3333333333335" x2="186.66666666666669" y2="560.0000000000001"></line><line stroke-dasharray="11.666666666666666 70" x1="186.66666666666669" y1="583.3333333333334" x2="163.33333333333334" y2="595"></line><line x1="186.66666666666669" y1="606.6666666666666" x2="163.33333333333334" y2="618.3333333333333"></line><line x1="163.33333333333334" y1="618.3333333333333" x2="186.66666666666669" y2="629.9999999999999"></line><line x1="186.66666666666669" y1="629.9999999999999" x2="163.33333333333334" y2="641.6666666666665"></line><line x1="163.33333333333334" y1="641.6666666666665" x2="186.66666666666669" y2="653.3333333333331"></line><line stroke-dasharray="11.666666666666666 70" x1="163.33333333333334" y1="653.3333333333331" x2="186.66666666666669" y2="664.9999999999998"></line><line stroke-dasharray="11.666666666666666 70" x1="163.33333333333334" y1="664.9999999999998" x2="186.66666666666669" y2="676.6666666666664"></line><line x1="186.66666666666669" y1="676.6666666666664" x2="163.33333333333334" y2="688.333333333333"></line><line x1="186.66666666666669" y1="23.333333333333332" x2="210.00000000000003" y2="35"></line><line x1="186.66666666666669" y1="46.666666666666664" x2="210.00000000000003" y2="58.33333333333333"></line><line stroke-dasharray="11.666666666666666 70" x1="186.66666666666669" y1="58.33333333333333" x2="210.00000000000003" y2="70"></line><line x1="186.66666666666669" y1="116.66666666666669" x2="210.00000000000003" y2="128.33333333333334"></line><line x1="186.66666666666669" y1="140" x2="210.00000000000003" y2="151.66666666666666"></line><line x1="186.66666666666669" y1="163.33333333333331" x2="210.00000000000003" y2="174.99999999999997"></line><line x1="210.00000000000003" y1="244.99999999999991" x2="186.66666666666669" y2="256.6666666666666"></line><line x1="210.00000000000003" y1="256.6666666666666" x2="186.66666666666669" y2="268.33333333333326"></line><line x1="210.00000000000003" y1="268.33333333333326" x2="186.66666666666669" y2="279.99999999999994"></line><line x1="186.66666666666669" y1="279.99999999999994" x2="210.00000000000003" y2="291.66666666666663"></line><line x1="210.00000000000003" y1="338.33333333333337" x2="186.66666666666669" y2="350.00000000000006"></line><line stroke-dasharray="11.666666666666666 70" x1="186.66666666666669" y1="350.00000000000006" x2="210.00000000000003" y2="361.66666666666674"></line><line x1="186.66666666666669" y1="361.66666666666674" x2="210.00000000000003" y2="373.3333333333334"></line><line x1="186.66666666666669" y1="420.00000000000017" x2="210.00000000000003" y2="431.66666666666686"></line><line x1="186.66666666666669" y1="431.66666666666686" x2="210.00000000000003" y2="443.33333333333354"></line><line x1="186.66666666666669" y1="455.0000000000002" x2="210.00000000000003" y2="466.6666666666669"></line><line stroke-dasharray="11.666666666666666 70" x1="186.66666666666669" y1="466.6666666666669" x2="210.00000000000003" y2="478.3333333333336"></line><line x1="210.00000000000003" y1="478.3333333333336" x2="186.66666666666669" y2="490.0000000000003"></line><line x1="186.66666666666669" y1="501.66666666666697" x2="210.00000000000003" y2="513.3333333333336"></line><line x1="210.00000000000003" y1="513.3333333333336" x2="186.66666666666669" y2="525.0000000000002"></line><line x1="186.66666666666669" y1="571.6666666666667" x2="210.00000000000003" y2="583.3333333333334"></line><line x1="186.66666666666669" y1="583.3333333333334" x2="210.00000000000003" y2="595"></line><line x1="186.66666666666669" y1="664.9999999999998" x2="210.00000000000003" y2="676.6666666666664"></line><line x1="210.00000000000003" y1="0" x2="233.33333333333337" y2="11.666666666666666"></line><line x1="233.33333333333337" y1="11.666666666666666" x2="210.00000000000003" y2="23.333333333333332"></line><line x1="210.00000000000003" y1="46.666666666666664" x2="233.33333333333337" y2="58.33333333333333"></line><line x1="210.00000000000003" y1="81.66666666666667" x2="233.33333333333337" y2="93.33333333333334"></line><line x1="210.00000000000003" y1="93.33333333333334" x2="233.33333333333337" y2="105.00000000000001"></line><line x1="233.33333333333337" y1="105.00000000000001" x2="210.00000000000003" y2="116.66666666666669"></line><line stroke-dasharray="11.666666666666666 70" x1="233.33333333333337" y1="116.66666666666669" x2="210.00000000000003" y2="128.33333333333334"></line><line stroke-dasharray="11.666666666666666 70" x1="233.33333333333337" y1="128.33333333333334" x2="210.00000000000003" y2="140"></line><line x1="210.00000000000003" y1="151.66666666666666" x2="233.33333333333337" y2="163.33333333333331"></line><line x1="233.33333333333337" y1="198.3333333333333" x2="210.00000000000003" y2="209.99999999999994"></line><line stroke-dasharray="11.666666666666666 70" x1="210.00000000000003" y1="268.33333333333326" x2="233.33333333333337" y2="279.99999999999994"></line><line stroke-dasharray="11.666666666666666 70" x1="210.00000000000003" y1="279.99999999999994" x2="233.33333333333337" y2="291.66666666666663"></line><line x1="210.00000000000003" y1="291.66666666666663" x2="233.33333333333337" y2="303.3333333333333"></line><line x1="210.00000000000003" y1="350.00000000000006" x2="233.33333333333337" y2="361.66666666666674"></line><line x1="210.00000000000003" y1="361.66666666666674" x2="233.33333333333337" y2="373.3333333333334"></line><line x1="233.33333333333337" y1="373.3333333333334" x2="210.00000000000003" y2="385.0000000000001"></line><line stroke-dasharray="11.666666666666666 70" x1="210.00000000000003" y1="420.00000000000017" x2="233.33333333333337" y2="431.66666666666686"></line><line x1="210.00000000000003" y1="431.66666666666686" x2="233.33333333333337" y2="443.33333333333354"></line><line stroke-dasharray="11.666666666666666 70" x1="210.00000000000003" y1="455.0000000000002" x2="233.33333333333337" y2="466.6666666666669"></line><line stroke-dasharray="11.666666666666666 70" x1="233.33333333333337" y1="466.6666666666669" x2="210.00000000000003" y2="478.3333333333336"></line><line x1="210.00000000000003" y1="478.3333333333336" x2="233.33333333333337" y2="490.0000000000003"></line><line x1="210.00000000000003" y1="513.3333333333336" x2="233.33333333333337" y2="525.0000000000002"></line><line x1="210.00000000000003" y1="548.3333333333335" x2="233.33333333333337" y2="560.0000000000001"></line><line x1="233.33333333333337" y1="560.0000000000001" x2="210.00000000000003" y2="571.6666666666667"></line><line stroke-dasharray="11.666666666666666 70" x1="233.33333333333337" y1="595" x2="210.00000000000003" y2="606.6666666666666"></line><line stroke-dasharray="11.666666666666666 70" x1="210.00000000000003" y1="606.6666666666666" x2="233.33333333333337" y2="618.3333333333333"></line><line x1="233.33333333333337" y1="641.6666666666665" x2="210.00000000000003" y2="653.3333333333331"></line><line x1="233.33333333333337" y1="653.3333333333331" x2="210.00000000000003" y2="664.9999999999998"></line><line x1="210.00000000000003" y1="664.9999999999998" x2="233.33333333333337" y2="676.6666666666664"></line><line x1="233.33333333333337" y1="676.6666666666664" x2="210.00000000000003" y2="688.333333333333"></line><line x1="233.33333333333337" y1="688.333333333333" x2="210.00000000000003" y2="699.9999999999997"></line><line x1="233.33333333333337" y1="0" x2="256.6666666666667" y2="11.666666666666666"></line><line stroke-dasharray="11.666666666666666 70" x1="256.6666666666667" y1="23.333333333333332" x2="233.33333333333337" y2="35"></line><line x1="233.33333333333337" y1="58.33333333333333" x2="256.6666666666667" y2="70"></line><line x1="256.6666666666667" y1="70" x2="233.33333333333337" y2="81.66666666666667"></line><line x1="233.33333333333337" y1="93.33333333333334" x2="256.6666666666667" y2="105.00000000000001"></line><line x1="233.33333333333337" y1="128.33333333333334" x2="256.6666666666667" y2="140"></line><line x1="233.33333333333337" y1="163.33333333333331" x2="256.6666666666667" y2="174.99999999999997"></line><line x1="256.6666666666667" y1="174.99999999999997" x2="233.33333333333337" y2="186.66666666666663"></line><line stroke-dasharray="11.666666666666666 70" x1="256.6666666666667" y1="186.66666666666663" x2="233.33333333333337" y2="198.3333333333333"></line><line x1="233.33333333333337" y1="198.3333333333333" x2="256.6666666666667" y2="209.99999999999994"></line><line x1="256.6666666666667" y1="221.6666666666666" x2="233.33333333333337" y2="233.33333333333326"></line><line stroke-dasharray="11.666666666666666 70" x1="233.33333333333337" y1="233.33333333333326" x2="256.6666666666667" y2="244.99999999999991"></line><line x1="256.6666666666667" y1="256.6666666666666" x2="233.33333333333337" y2="268.33333333333326"></line><line x1="233.33333333333337" y1="279.99999999999994" x2="256.6666666666667" y2="291.66666666666663"></line><line x1="233.33333333333337" y1="326.6666666666667" x2="256.6666666666667" y2="338.33333333333337"></line><line stroke-dasharray="11.666666666666666 70" x1="233.33333333333337" y1="385.0000000000001" x2="256.6666666666667" y2="396.6666666666668"></line><line x1="256.6666666666667" y1="396.6666666666668" x2="233.33333333333337" y2="408.3333333333335"></line><line stroke-dasharray="11.666666666666666 70" x1="233.33333333333337" y1="408.3333333333335" x2="256.6666666666667" y2="420.00000000000017"></line><line x1="233.33333333333337" y1="431.66666666666686" x2="256.6666666666667" y2="443.33333333333354"></line><line x1="256.6666666666667" y1="443.33333333333354" x2="233.33333333333337" y2="455.0000000000002"></line><line stroke-dasharray="11.666666666666666 70" x1="233.33333333333337" y1="455.0000000000002" x2="256.6666666666667" y2="466.6666666666669"></line><line x1="233.33333333333337" y1="466.6666666666669" x2="256.6666666666667" y2="478.3333333333336"></line><line x1="256.6666666666667" y1="478.3333333333336" x2="233.33333333333337" y2="490.0000000000003"></line><line x1="233.33333333333337" y1="501.66666666666697" x2="256.6666666666667" y2="513.3333333333336"></line><line x1="233.33333333333337" y1="513.3333333333336" x2="256.6666666666667" y2="525.0000000000002"></line><line x1="233.33333333333337" y1="571.6666666666667" x2="256.6666666666667" y2="583.3333333333334"></line><line x1="233.33333333333337" y1="583.3333333333334" x2="256.6666666666667" y2="595"></line><line x1="233.33333333333337" y1="606.6666666666666" x2="256.6666666666667" y2="618.3333333333333"></line><line x1="256.6666666666667" y1="629.9999999999999" x2="233.33333333333337" y2="641.6666666666665"></line><line stroke-dasharray="11.666666666666666 70" x1="233.33333333333337" y1="664.9999999999998" x2="256.6666666666667" y2="676.6666666666664"></line><line x1="233.33333333333337" y1="688.333333333333" x2="256.6666666666667" y2="699.9999999999997"></line><line stroke-dasharray="11.666666666666666 70" x1="280" y1="23.333333333333332" x2="256.6666666666667" y2="35"></line><line x1="280" y1="70" x2="256.6666666666667" y2="81.66666666666667"></line><line x1="280" y1="81.66666666666667" x2="256.6666666666667" y2="93.33333333333334"></line><line x1="256.6666666666667" y1="105.00000000000001" x2="280" y2="116.66666666666669"></line><line x1="256.6666666666667" y1="116.66666666666669" x2="280" y2="128.33333333333334"></line><line x1="256.6666666666667" y1="128.33333333333334" x2="280" y2="140"></line><line x1="256.6666666666667" y1="163.33333333333331" x2="280" y2="174.99999999999997"></line><line x1="256.6666666666667" y1="174.99999999999997" x2="280" y2="186.66666666666663"></line><line x1="280" y1="186.66666666666663" x2="256.6666666666667" y2="198.3333333333333"></line><line x1="280" y1="198.3333333333333" x2="256.6666666666667" y2="209.99999999999994"></line><line x1="256.6666666666667" y1="244.99999999999991" x2="280" y2="256.6666666666666"></line><line x1="256.6666666666667" y1="268.33333333333326" x2="280" y2="279.99999999999994"></line><line x1="256.6666666666667" y1="279.99999999999994" x2="280" y2="291.66666666666663"></line><line x1="256.6666666666667" y1="303.3333333333333" x2="280" y2="315"></line><line x1="256.6666666666667" y1="338.33333333333337" x2="280" y2="350.00000000000006"></line><line x1="280" y1="350.00000000000006" x2="256.6666666666667" y2="361.66666666666674"></line><line stroke-dasharray="11.666666666666666 70" x1="256.6666666666667" y1="361.66666666666674" x2="280" y2="373.3333333333334"></line><line x1="256.6666666666667" y1="373.3333333333334" x2="280" y2="385.0000000000001"></line><line x1="256.6666666666667" y1="385.0000000000001" x2="280" y2="396.6666666666668"></line><line x1="256.6666666666667" y1="396.6666666666668" x2="280" y2="408.3333333333335"></line><line x1="256.6666666666667" y1="466.6666666666669" x2="280" y2="478.3333333333336"></line><line x1="256.6666666666667" y1="513.3333333333336" x2="280" y2="525.0000000000002"></line><line x1="280" y1="548.3333333333335" x2="256.6666666666667" y2="560.0000000000001"></line><line x1="256.6666666666667" y1="560.0000000000001" x2="280" y2="571.6666666666667"></line><line x1="256.6666666666667" y1="595" x2="280" y2="606.6666666666666"></line><line x1="280" y1="618.3333333333333" x2="256.6666666666667" y2="629.9999999999999"></line><line x1="256.6666666666667" y1="629.9999999999999" x2="280" y2="641.6666666666665"></line><line x1="280" y1="664.9999999999998" x2="256.6666666666667" y2="676.6666666666664"></line><line stroke-dasharray="11.666666666666666 70" x1="280" y1="688.333333333333" x2="256.6666666666667" y2="699.9999999999997"></line><line stroke-dasharray="11.666666666666666 70" x1="280" y1="11.666666666666666" x2="303.3333333333333" y2="23.333333333333332"></line><line stroke-dasharray="11.666666666666666 70" x1="280" y1="35" x2="303.3333333333333" y2="46.666666666666664"></line><line x1="280" y1="70" x2="303.3333333333333" y2="81.66666666666667"></line><line x1="280" y1="93.33333333333334" x2="303.3333333333333" y2="105.00000000000001"></line><line x1="303.3333333333333" y1="105.00000000000001" x2="280" y2="116.66666666666669"></line><line x1="280" y1="116.66666666666669" x2="303.3333333333333" y2="128.33333333333334"></line><line stroke-dasharray="11.666666666666666 70" x1="303.3333333333333" y1="140" x2="280" y2="151.66666666666666"></line><line x1="280" y1="151.66666666666666" x2="303.3333333333333" y2="163.33333333333331"></line><line x1="280" y1="163.33333333333331" x2="303.3333333333333" y2="174.99999999999997"></line><line stroke-dasharray="11.666666666666666 70" x1="280" y1="174.99999999999997" x2="303.3333333333333" y2="186.66666666666663"></line><line x1="280" y1="198.3333333333333" x2="303.3333333333333" y2="209.99999999999994"></line><line x1="280" y1="361.66666666666674" x2="303.3333333333333" y2="373.3333333333334"></line><line x1="303.3333333333333" y1="373.3333333333334" x2="280" y2="385.0000000000001"></line><line x1="303.3333333333333" y1="385.0000000000001" x2="280" y2="396.6666666666668"></line><line stroke-dasharray="11.666666666666666 70" x1="280" y1="396.6666666666668" x2="303.3333333333333" y2="408.3333333333335"></line><line stroke-dasharray="11.666666666666666 70" x1="303.3333333333333" y1="420.00000000000017" x2="280" y2="431.66666666666686"></line><line x1="280" y1="466.6666666666669" x2="303.3333333333333" y2="478.3333333333336"></line><line x1="303.3333333333333" y1="513.3333333333336" x2="280" y2="525.0000000000002"></line><line x1="280" y1="548.3333333333335" x2="303.3333333333333" y2="560.0000000000001"></line><line x1="303.3333333333333" y1="560.0000000000001" x2="280" y2="571.6666666666667"></line><line x1="280" y1="583.3333333333334" x2="303.3333333333333" y2="595"></line><line x1="303.3333333333333" y1="606.6666666666666" x2="280" y2="618.3333333333333"></line><line x1="280" y1="629.9999999999999" x2="303.3333333333333" y2="641.6666666666665"></line><line x1="280" y1="641.6666666666665" x2="303.3333333333333" y2="653.3333333333331"></line><line x1="280" y1="664.9999999999998" x2="303.3333333333333" y2="676.6666666666664"></line><line x1="303.3333333333333" y1="11.666666666666666" x2="326.66666666666663" y2="23.333333333333332"></line><line x1="303.3333333333333" y1="23.333333333333332" x2="326.66666666666663" y2="35"></line><line x1="326.66666666666663" y1="46.666666666666664" x2="303.3333333333333" y2="58.33333333333333"></line><line x1="303.3333333333333" y1="58.33333333333333" x2="326.66666666666663" y2="70"></line><line x1="303.3333333333333" y1="81.66666666666667" x2="326.66666666666663" y2="93.33333333333334"></line><line x1="303.3333333333333" y1="105.00000000000001" x2="326.66666666666663" y2="116.66666666666669"></line><line x1="303.3333333333333" y1="116.66666666666669" x2="326.66666666666663" y2="128.33333333333334"></line><line x1="326.66666666666663" y1="140" x2="303.3333333333333" y2="151.66666666666666"></line><line x1="303.3333333333333" y1="151.66666666666666" x2="326.66666666666663" y2="163.33333333333331"></line><line x1="303.3333333333333" y1="163.33333333333331" x2="326.66666666666663" y2="174.99999999999997"></line><line stroke-dasharray="11.666666666666666 70" x1="303.3333333333333" y1="186.66666666666663" x2="326.66666666666663" y2="198.3333333333333"></line><line x1="303.3333333333333" y1="209.99999999999994" x2="326.66666666666663" y2="221.6666666666666"></line><line x1="303.3333333333333" y1="221.6666666666666" x2="326.66666666666663" y2="233.33333333333326"></line><line x1="303.3333333333333" y1="256.6666666666666" x2="326.66666666666663" y2="268.33333333333326"></line><line x1="326.66666666666663" y1="291.66666666666663" x2="303.3333333333333" y2="303.3333333333333"></line><line stroke-dasharray="11.666666666666666 70" x1="303.3333333333333" y1="303.3333333333333" x2="326.66666666666663" y2="315"></line><line x1="303.3333333333333" y1="338.33333333333337" x2="326.66666666666663" y2="350.00000000000006"></line><line stroke-dasharray="11.666666666666666 70" x1="303.3333333333333" y1="350.00000000000006" x2="326.66666666666663" y2="361.66666666666674"></line><line x1="326.66666666666663" y1="361.66666666666674" x2="303.3333333333333" y2="373.3333333333334"></line><line x1="326.66666666666663" y1="396.6666666666668" x2="303.3333333333333" y2="408.3333333333335"></line><line x1="303.3333333333333" y1="466.6666666666669" x2="326.66666666666663" y2="478.3333333333336"></line><line x1="303.3333333333333" y1="490.0000000000003" x2="326.66666666666663" y2="501.66666666666697"></line><line x1="303.3333333333333" y1="513.3333333333336" x2="326.66666666666663" y2="525.0000000000002"></line><line stroke-dasharray="11.666666666666666 70" x1="326.66666666666663" y1="525.0000000000002" x2="303.3333333333333" y2="536.6666666666669"></line><line x1="326.66666666666663" y1="536.6666666666669" x2="303.3333333333333" y2="548.3333333333335"></line><line x1="303.3333333333333" y1="560.0000000000001" x2="326.66666666666663" y2="571.6666666666667"></line><line x1="303.3333333333333" y1="571.6666666666667" x2="326.66666666666663" y2="583.3333333333334"></line><line x1="303.3333333333333" y1="583.3333333333334" x2="326.66666666666663" y2="595"></line><line stroke-dasharray="11.666666666666666 70" x1="303.3333333333333" y1="595" x2="326.66666666666663" y2="606.6666666666666"></line><line x1="326.66666666666663" y1="629.9999999999999" x2="303.3333333333333" y2="641.6666666666665"></line><line x1="326.66666666666663" y1="676.6666666666664" x2="303.3333333333333" y2="688.333333333333"></line><line x1="326.66666666666663" y1="688.333333333333" x2="303.3333333333333" y2="699.9999999999997"></line><line x1="326.66666666666663" y1="0" x2="349.99999999999994" y2="11.666666666666666"></line><line stroke-dasharray="11.666666666666666 70" x1="326.66666666666663" y1="11.666666666666666" x2="349.99999999999994" y2="23.333333333333332"></line><line x1="326.66666666666663" y1="93.33333333333334" x2="349.99999999999994" y2="105.00000000000001"></line><line x1="326.66666666666663" y1="105.00000000000001" x2="349.99999999999994" y2="116.66666666666669"></line><line stroke-dasharray="11.666666666666666 70" x1="326.66666666666663" y1="116.66666666666669" x2="349.99999999999994" y2="128.33333333333334"></line><line x1="349.99999999999994" y1="128.33333333333334" x2="326.66666666666663" y2="140"></line><line x1="349.99999999999994" y1="151.66666666666666" x2="326.66666666666663" y2="163.33333333333331"></line><line x1="326.66666666666663" y1="174.99999999999997" x2="349.99999999999994" y2="186.66666666666663"></line><line x1="326.66666666666663" y1="186.66666666666663" x2="349.99999999999994" y2="198.3333333333333"></line><line x1="326.66666666666663" y1="221.6666666666666" x2="349.99999999999994" y2="233.33333333333326"></line><line stroke-dasharray="11.666666666666666 70" x1="349.99999999999994" y1="233.33333333333326" x2="326.66666666666663" y2="244.99999999999991"></line><line x1="326.66666666666663" y1="291.66666666666663" x2="349.99999999999994" y2="303.3333333333333"></line><line x1="326.66666666666663" y1="315" x2="349.99999999999994" y2="326.6666666666667"></line><line stroke-dasharray="11.666666666666666 70" x1="326.66666666666663" y1="326.6666666666667" x2="349.99999999999994" y2="338.33333333333337"></line><line stroke-dasharray="11.666666666666666 70" x1="326.66666666666663" y1="338.33333333333337" x2="349.99999999999994" y2="350.00000000000006"></line><line x1="349.99999999999994" y1="350.00000000000006" x2="326.66666666666663" y2="361.66666666666674"></line><line x1="326.66666666666663" y1="361.66666666666674" x2="349.99999999999994" y2="373.3333333333334"></line><line x1="349.99999999999994" y1="466.6666666666669" x2="326.66666666666663" y2="478.3333333333336"></line><line x1="326.66666666666663" y1="478.3333333333336" x2="349.99999999999994" y2="490.0000000000003"></line><line x1="326.66666666666663" y1="501.66666666666697" x2="349.99999999999994" y2="513.3333333333336"></line><line stroke-dasharray="11.666666666666666 70" x1="326.66666666666663" y1="536.6666666666669" x2="349.99999999999994" y2="548.3333333333335"></line><line x1="326.66666666666663" y1="548.3333333333335" x2="349.99999999999994" y2="560.0000000000001"></line><line x1="326.66666666666663" y1="595" x2="349.99999999999994" y2="606.6666666666666"></line><line x1="349.99999999999994" y1="629.9999999999999" x2="326.66666666666663" y2="641.6666666666665"></line><line stroke-dasharray="11.666666666666666 70" x1="349.99999999999994" y1="641.6666666666665" x2="326.66666666666663" y2="653.3333333333331"></line><line x1="326.66666666666663" y1="653.3333333333331" x2="349.99999999999994" y2="664.9999999999998"></line><line stroke-dasharray="11.666666666666666 70" x1="349.99999999999994" y1="0" x2="373.33333333333326" y2="11.666666666666666"></line><line stroke-dasharray="11.666666666666666 70" x1="373.33333333333326" y1="11.666666666666666" x2="349.99999999999994" y2="23.333333333333332"></line><line x1="349.99999999999994" y1="23.333333333333332" x2="373.33333333333326" y2="35"></line><line stroke-dasharray="11.666666666666666 70" x1="349.99999999999994" y1="70" x2="373.33333333333326" y2="81.66666666666667"></line><line x1="373.33333333333326" y1="93.33333333333334" x2="349.99999999999994" y2="105.00000000000001"></line><line x1="373.33333333333326" y1="105.00000000000001" x2="349.99999999999994" y2="116.66666666666669"></line><line stroke-dasharray="11.666666666666666 70" x1="349.99999999999994" y1="116.66666666666669" x2="373.33333333333326" y2="128.33333333333334"></line><line stroke-dasharray="11.666666666666666 70" x1="349.99999999999994" y1="151.66666666666666" x2="373.33333333333326" y2="163.33333333333331"></line><line x1="373.33333333333326" y1="163.33333333333331" x2="349.99999999999994" y2="174.99999999999997"></line><line x1="349.99999999999994" y1="186.66666666666663" x2="373.33333333333326" y2="198.3333333333333"></line><line x1="349.99999999999994" y1="209.99999999999994" x2="373.33333333333326" y2="221.6666666666666"></line><line x1="349.99999999999994" y1="221.6666666666666" x2="373.33333333333326" y2="233.33333333333326"></line><line x1="349.99999999999994" y1="279.99999999999994" x2="373.33333333333326" y2="291.66666666666663"></line><line stroke-dasharray="11.666666666666666 70" x1="373.33333333333326" y1="291.66666666666663" x2="349.99999999999994" y2="303.3333333333333"></line><line x1="349.99999999999994" y1="315" x2="373.33333333333326" y2="326.6666666666667"></line><line x1="349.99999999999994" y1="338.33333333333337" x2="373.33333333333326" y2="350.00000000000006"></line><line x1="349.99999999999994" y1="350.00000000000006" x2="373.33333333333326" y2="361.66666666666674"></line><line stroke-dasharray="11.666666666666666 70" x1="373.33333333333326" y1="361.66666666666674" x2="349.99999999999994" y2="373.3333333333334"></line><line stroke-dasharray="11.666666666666666 70" x1="349.99999999999994" y1="373.3333333333334" x2="373.33333333333326" y2="385.0000000000001"></line><line x1="349.99999999999994" y1="385.0000000000001" x2="373.33333333333326" y2="396.6666666666668"></line><line x1="373.33333333333326" y1="420.00000000000017" x2="349.99999999999994" y2="431.66666666666686"></line><line x1="349.99999999999994" y1="431.66666666666686" x2="373.33333333333326" y2="443.33333333333354"></line><line stroke-dasharray="11.666666666666666 70" x1="349.99999999999994" y1="443.33333333333354" x2="373.33333333333326" y2="455.0000000000002"></line><line stroke-dasharray="11.666666666666666 70" x1="349.99999999999994" y1="455.0000000000002" x2="373.33333333333326" y2="466.6666666666669"></line><line x1="373.33333333333326" y1="466.6666666666669" x2="349.99999999999994" y2="478.3333333333336"></line><line x1="349.99999999999994" y1="490.0000000000003" x2="373.33333333333326" y2="501.66666666666697"></line><line x1="373.33333333333326" y1="525.0000000000002" x2="349.99999999999994" y2="536.6666666666669"></line><line x1="373.33333333333326" y1="560.0000000000001" x2="349.99999999999994" y2="571.6666666666667"></line><line x1="349.99999999999994" y1="571.6666666666667" x2="373.33333333333326" y2="583.3333333333334"></line><line x1="349.99999999999994" y1="583.3333333333334" x2="373.33333333333326" y2="595"></line><line x1="349.99999999999994" y1="595" x2="373.33333333333326" y2="606.6666666666666"></line><line x1="349.99999999999994" y1="618.3333333333333" x2="373.33333333333326" y2="629.9999999999999"></line><line x1="349.99999999999994" y1="641.6666666666665" x2="373.33333333333326" y2="653.3333333333331"></line><line x1="349.99999999999994" y1="653.3333333333331" x2="373.33333333333326" y2="664.9999999999998"></line><line x1="349.99999999999994" y1="664.9999999999998" x2="373.33333333333326" y2="676.6666666666664"></line><line x1="349.99999999999994" y1="676.6666666666664" x2="373.33333333333326" y2="688.333333333333"></line><line x1="373.33333333333326" y1="0" x2="396.6666666666666" y2="11.666666666666666"></line><line x1="396.6666666666666" y1="46.666666666666664" x2="373.33333333333326" y2="58.33333333333333"></line><line x1="373.33333333333326" y1="70" x2="396.6666666666666" y2="81.66666666666667"></line><line x1="373.33333333333326" y1="81.66666666666667" x2="396.6666666666666" y2="93.33333333333334"></line><line stroke-dasharray="11.666666666666666 70" x1="373.33333333333326" y1="128.33333333333334" x2="396.6666666666666" y2="140"></line><line x1="396.6666666666666" y1="233.33333333333326" x2="373.33333333333326" y2="244.99999999999991"></line><line stroke-dasharray="11.666666666666666 70" x1="373.33333333333326" y1="244.99999999999991" x2="396.6666666666666" y2="256.6666666666666"></line><line x1="373.33333333333326" y1="268.33333333333326" x2="396.6666666666666" y2="279.99999999999994"></line><line x1="396.6666666666666" y1="279.99999999999994" x2="373.33333333333326" y2="291.66666666666663"></line><line x1="373.33333333333326" y1="315" x2="396.6666666666666" y2="326.6666666666667"></line><line x1="396.6666666666666" y1="326.6666666666667" x2="373.33333333333326" y2="338.33333333333337"></line><line x1="396.6666666666666" y1="373.3333333333334" x2="373.33333333333326" y2="385.0000000000001"></line><line stroke-dasharray="11.666666666666666 70" x1="373.33333333333326" y1="396.6666666666668" x2="396.6666666666666" y2="408.3333333333335"></line><line x1="373.33333333333326" y1="408.3333333333335" x2="396.6666666666666" y2="420.00000000000017"></line><line x1="373.33333333333326" y1="420.00000000000017" x2="396.6666666666666" y2="431.66666666666686"></line><line stroke-dasharray="11.666666666666666 70" x1="373.33333333333326" y1="466.6666666666669" x2="396.6666666666666" y2="478.3333333333336"></line><line x1="396.6666666666666" y1="478.3333333333336" x2="373.33333333333326" y2="490.0000000000003"></line><line x1="373.33333333333326" y1="490.0000000000003" x2="396.6666666666666" y2="501.66666666666697"></line><line x1="373.33333333333326" y1="501.66666666666697" x2="396.6666666666666" y2="513.3333333333336"></line><line x1="373.33333333333326" y1="536.6666666666669" x2="396.6666666666666" y2="548.3333333333335"></line><line stroke-dasharray="11.666666666666666 70" x1="373.33333333333326" y1="548.3333333333335" x2="396.6666666666666" y2="560.0000000000001"></line><line x1="373.33333333333326" y1="560.0000000000001" x2="396.6666666666666" y2="571.6666666666667"></line><line x1="396.6666666666666" y1="583.3333333333334" x2="373.33333333333326" y2="595"></line><line x1="396.6666666666666" y1="606.6666666666666" x2="373.33333333333326" y2="618.3333333333333"></line><line x1="373.33333333333326" y1="618.3333333333333" x2="396.6666666666666" y2="629.9999999999999"></line><line x1="396.6666666666666" y1="641.6666666666665" x2="373.33333333333326" y2="653.3333333333331"></line><line x1="373.33333333333326" y1="653.3333333333331" x2="396.6666666666666" y2="664.9999999999998"></line><line x1="396.6666666666666" y1="664.9999999999998" x2="373.33333333333326" y2="676.6666666666664"></line><line x1="373.33333333333326" y1="688.333333333333" x2="396.6666666666666" y2="699.9999999999997"></line><line x1="396.6666666666666" y1="0" x2="419.9999999999999" y2="11.666666666666666"></line><line x1="396.6666666666666" y1="11.666666666666666" x2="419.9999999999999" y2="23.333333333333332"></line><line x1="396.6666666666666" y1="23.333333333333332" x2="419.9999999999999" y2="35"></line><line x1="419.9999999999999" y1="35" x2="396.6666666666666" y2="46.666666666666664"></line><line x1="419.9999999999999" y1="46.666666666666664" x2="396.6666666666666" y2="58.33333333333333"></line><line stroke-dasharray="11.666666666666666 70" x1="419.9999999999999" y1="93.33333333333334" x2="396.6666666666666" y2="105.00000000000001"></line><line x1="396.6666666666666" y1="105.00000000000001" x2="419.9999999999999" y2="116.66666666666669"></line><line x1="396.6666666666666" y1="128.33333333333334" x2="419.9999999999999" y2="140"></line><line stroke-dasharray="11.666666666666666 70" x1="419.9999999999999" y1="140" x2="396.6666666666666" y2="151.66666666666666"></line><line x1="396.6666666666666" y1="163.33333333333331" x2="419.9999999999999" y2="174.99999999999997"></line><line x1="396.6666666666666" y1="174.99999999999997" x2="419.9999999999999" y2="186.66666666666663"></line><line x1="396.6666666666666" y1="244.99999999999991" x2="419.9999999999999" y2="256.6666666666666"></line><line stroke-dasharray="11.666666666666666 70" x1="396.6666666666666" y1="268.33333333333326" x2="419.9999999999999" y2="279.99999999999994"></line><line x1="396.6666666666666" y1="291.66666666666663" x2="419.9999999999999" y2="303.3333333333333"></line><line x1="396.6666666666666" y1="303.3333333333333" x2="419.9999999999999" y2="315"></line><line x1="396.6666666666666" y1="315" x2="419.9999999999999" y2="326.6666666666667"></line><line x1="396.6666666666666" y1="326.6666666666667" x2="419.9999999999999" y2="338.33333333333337"></line><line x1="396.6666666666666" y1="350.00000000000006" x2="419.9999999999999" y2="361.66666666666674"></line><line x1="419.9999999999999" y1="420.00000000000017" x2="396.6666666666666" y2="431.66666666666686"></line><line x1="396.6666666666666" y1="431.66666666666686" x2="419.9999999999999" y2="443.33333333333354"></line><line x1="419.9999999999999" y1="443.33333333333354" x2="396.6666666666666" y2="455.0000000000002"></line><line x1="396.6666666666666" y1="525.0000000000002" x2="419.9999999999999" y2="536.6666666666669"></line><line x1="396.6666666666666" y1="536.6666666666669" x2="419.9999999999999" y2="548.3333333333335"></line><line x1="396.6666666666666" y1="548.3333333333335" x2="419.9999999999999" y2="560.0000000000001"></line><line x1="396.6666666666666" y1="560.0000000000001" x2="419.9999999999999" y2="571.6666666666667"></line><line x1="419.9999999999999" y1="583.3333333333334" x2="396.6666666666666" y2="595"></line><line x1="396.6666666666666" y1="595" x2="419.9999999999999" y2="606.6666666666666"></line><line stroke-dasharray="11.666666666666666 70" x1="396.6666666666666" y1="618.3333333333333" x2="419.9999999999999" y2="629.9999999999999"></line><line x1="396.6666666666666" y1="629.9999999999999" x2="419.9999999999999" y2="641.6666666666665"></line><line x1="419.9999999999999" y1="23.333333333333332" x2="443.3333333333332" y2="35"></line><line x1="419.9999999999999" y1="70" x2="443.3333333333332" y2="81.66666666666667"></line><line x1="419.9999999999999" y1="81.66666666666667" x2="443.3333333333332" y2="93.33333333333334"></line><line stroke-dasharray="11.666666666666666 70" x1="419.9999999999999" y1="93.33333333333334" x2="443.3333333333332" y2="105.00000000000001"></line><line x1="419.9999999999999" y1="128.33333333333334" x2="443.3333333333332" y2="140"></line><line stroke-dasharray="11.666666666666666 70" x1="443.3333333333332" y1="140" x2="419.9999999999999" y2="151.66666666666666"></line><line x1="419.9999999999999" y1="163.33333333333331" x2="443.3333333333332" y2="174.99999999999997"></line><line x1="419.9999999999999" y1="209.99999999999994" x2="443.3333333333332" y2="221.6666666666666"></line><line x1="419.9999999999999" y1="233.33333333333326" x2="443.3333333333332" y2="244.99999999999991"></line><line x1="419.9999999999999" y1="256.6666666666666" x2="443.3333333333332" y2="268.33333333333326"></line><line x1="419.9999999999999" y1="268.33333333333326" x2="443.3333333333332" y2="279.99999999999994"></line><line x1="419.9999999999999" y1="291.66666666666663" x2="443.3333333333332" y2="303.3333333333333"></line><line stroke-dasharray="11.666666666666666 70" x1="419.9999999999999" y1="315" x2="443.3333333333332" y2="326.6666666666667"></line><line x1="419.9999999999999" y1="326.6666666666667" x2="443.3333333333332" y2="338.33333333333337"></line><line x1="419.9999999999999" y1="338.33333333333337" x2="443.3333333333332" y2="350.00000000000006"></line><line x1="443.3333333333332" y1="373.3333333333334" x2="419.9999999999999" y2="385.0000000000001"></line><line stroke-dasharray="11.666666666666666 70" x1="419.9999999999999" y1="396.6666666666668" x2="443.3333333333332" y2="408.3333333333335"></line><line x1="419.9999999999999" y1="420.00000000000017" x2="443.3333333333332" y2="431.66666666666686"></line><line stroke-dasharray="11.666666666666666 70" x1="419.9999999999999" y1="431.66666666666686" x2="443.3333333333332" y2="443.33333333333354"></line><line stroke-dasharray="11.666666666666666 70" x1="419.9999999999999" y1="466.6666666666669" x2="443.3333333333332" y2="478.3333333333336"></line><line x1="443.3333333333332" y1="478.3333333333336" x2="419.9999999999999" y2="490.0000000000003"></line><line x1="419.9999999999999" y1="490.0000000000003" x2="443.3333333333332" y2="501.66666666666697"></line><line x1="419.9999999999999" y1="513.3333333333336" x2="443.3333333333332" y2="525.0000000000002"></line><line x1="443.3333333333332" y1="536.6666666666669" x2="419.9999999999999" y2="548.3333333333335"></line><line x1="419.9999999999999" y1="548.3333333333335" x2="443.3333333333332" y2="560.0000000000001"></line><line x1="443.3333333333332" y1="583.3333333333334" x2="419.9999999999999" y2="595"></line><line x1="443.3333333333332" y1="595" x2="419.9999999999999" y2="606.6666666666666"></line><line x1="443.3333333333332" y1="606.6666666666666" x2="419.9999999999999" y2="618.3333333333333"></line><line x1="419.9999999999999" y1="641.6666666666665" x2="443.3333333333332" y2="653.3333333333331"></line><line x1="419.9999999999999" y1="653.3333333333331" x2="443.3333333333332" y2="664.9999999999998"></line><line x1="419.9999999999999" y1="676.6666666666664" x2="443.3333333333332" y2="688.333333333333"></line><line x1="443.3333333333332" y1="0" x2="466.6666666666665" y2="11.666666666666666"></line><line x1="443.3333333333332" y1="58.33333333333333" x2="466.6666666666665" y2="70"></line><line x1="466.6666666666665" y1="81.66666666666667" x2="443.3333333333332" y2="93.33333333333334"></line><line x1="443.3333333333332" y1="105.00000000000001" x2="466.6666666666665" y2="116.66666666666669"></line><line stroke-dasharray="11.666666666666666 70" x1="443.3333333333332" y1="128.33333333333334" x2="466.6666666666665" y2="140"></line><line stroke-dasharray="11.666666666666666 70" x1="443.3333333333332" y1="140" x2="466.6666666666665" y2="151.66666666666666"></line><line x1="443.3333333333332" y1="163.33333333333331" x2="466.6666666666665" y2="174.99999999999997"></line><line x1="443.3333333333332" y1="186.66666666666663" x2="466.6666666666665" y2="198.3333333333333"></line><line x1="466.6666666666665" y1="209.99999999999994" x2="443.3333333333332" y2="221.6666666666666"></line><line stroke-dasharray="11.666666666666666 70" x1="443.3333333333332" y1="221.6666666666666" x2="466.6666666666665" y2="233.33333333333326"></line><line x1="443.3333333333332" y1="268.33333333333326" x2="466.6666666666665" y2="279.99999999999994"></line><line x1="443.3333333333332" y1="326.6666666666667" x2="466.6666666666665" y2="338.33333333333337"></line><line stroke-dasharray="11.666666666666666 70" x1="443.3333333333332" y1="338.33333333333337" x2="466.6666666666665" y2="350.00000000000006"></line><line stroke-dasharray="11.666666666666666 70" x1="443.3333333333332" y1="408.3333333333335" x2="466.6666666666665" y2="420.00000000000017"></line><line x1="466.6666666666665" y1="455.0000000000002" x2="443.3333333333332" y2="466.6666666666669"></line><line x1="443.3333333333332" y1="466.6666666666669" x2="466.6666666666665" y2="478.3333333333336"></line><line x1="466.6666666666665" y1="501.66666666666697" x2="443.3333333333332" y2="513.3333333333336"></line><line x1="466.6666666666665" y1="513.3333333333336" x2="443.3333333333332" y2="525.0000000000002"></line><line x1="443.3333333333332" y1="548.3333333333335" x2="466.6666666666665" y2="560.0000000000001"></line><line x1="443.3333333333332" y1="560.0000000000001" x2="466.6666666666665" y2="571.6666666666667"></line><line x1="466.6666666666665" y1="618.3333333333333" x2="443.3333333333332" y2="629.9999999999999"></line><line x1="466.6666666666665" y1="629.9999999999999" x2="443.3333333333332" y2="641.6666666666665"></line><line stroke-dasharray="11.666666666666666 70" x1="443.3333333333332" y1="653.3333333333331" x2="466.6666666666665" y2="664.9999999999998"></line><line x1="466.6666666666665" y1="676.6666666666664" x2="443.3333333333332" y2="688.333333333333"></line><line stroke-dasharray="11.666666666666666 70" x1="443.3333333333332" y1="688.333333333333" x2="466.6666666666665" y2="699.9999999999997"></line><line stroke-dasharray="11.666666666666666 70" x1="466.6666666666665" y1="11.666666666666666" x2="489.99999999999983" y2="23.333333333333332"></line><line stroke-dasharray="11.666666666666666 70" x1="466.6666666666665" y1="23.333333333333332" x2="489.99999999999983" y2="35"></line><line stroke-dasharray="11.666666666666666 70" x1="466.6666666666665" y1="70" x2="489.99999999999983" y2="81.66666666666667"></line><line stroke-dasharray="11.666666666666666 70" x1="466.6666666666665" y1="81.66666666666667" x2="489.99999999999983" y2="93.33333333333334"></line><line x1="466.6666666666665" y1="105.00000000000001" x2="489.99999999999983" y2="116.66666666666669"></line><line x1="466.6666666666665" y1="116.66666666666669" x2="489.99999999999983" y2="128.33333333333334"></line><line x1="466.6666666666665" y1="163.33333333333331" x2="489.99999999999983" y2="174.99999999999997"></line><line x1="466.6666666666665" y1="174.99999999999997" x2="489.99999999999983" y2="186.66666666666663"></line><line x1="489.99999999999983" y1="186.66666666666663" x2="466.6666666666665" y2="198.3333333333333"></line><line x1="489.99999999999983" y1="198.3333333333333" x2="466.6666666666665" y2="209.99999999999994"></line><line x1="489.99999999999983" y1="233.33333333333326" x2="466.6666666666665" y2="244.99999999999991"></line><line x1="489.99999999999983" y1="268.33333333333326" x2="466.6666666666665" y2="279.99999999999994"></line><line x1="466.6666666666665" y1="291.66666666666663" x2="489.99999999999983" y2="303.3333333333333"></line><line stroke-dasharray="11.666666666666666 70" x1="489.99999999999983" y1="315" x2="466.6666666666665" y2="326.6666666666667"></line><line x1="466.6666666666665" y1="326.6666666666667" x2="489.99999999999983" y2="338.33333333333337"></line><line x1="466.6666666666665" y1="338.33333333333337" x2="489.99999999999983" y2="350.00000000000006"></line><line x1="489.99999999999983" y1="396.6666666666668" x2="466.6666666666665" y2="408.3333333333335"></line><line x1="466.6666666666665" y1="408.3333333333335" x2="489.99999999999983" y2="420.00000000000017"></line><line x1="489.99999999999983" y1="420.00000000000017" x2="466.6666666666665" y2="431.66666666666686"></line><line x1="466.6666666666665" y1="443.33333333333354" x2="489.99999999999983" y2="455.0000000000002"></line><line x1="489.99999999999983" y1="455.0000000000002" x2="466.6666666666665" y2="466.6666666666669"></line><line x1="466.6666666666665" y1="490.0000000000003" x2="489.99999999999983" y2="501.66666666666697"></line><line x1="466.6666666666665" y1="501.66666666666697" x2="489.99999999999983" y2="513.3333333333336"></line><line x1="466.6666666666665" y1="536.6666666666669" x2="489.99999999999983" y2="548.3333333333335"></line><line x1="489.99999999999983" y1="560.0000000000001" x2="466.6666666666665" y2="571.6666666666667"></line><line x1="466.6666666666665" y1="629.9999999999999" x2="489.99999999999983" y2="641.6666666666665"></line><line x1="466.6666666666665" y1="653.3333333333331" x2="489.99999999999983" y2="664.9999999999998"></line><line x1="513.3333333333331" y1="0" x2="489.99999999999983" y2="11.666666666666666"></line><line x1="489.99999999999983" y1="11.666666666666666" x2="513.3333333333331" y2="23.333333333333332"></line><line x1="489.99999999999983" y1="35" x2="513.3333333333331" y2="46.666666666666664"></line><line x1="513.3333333333331" y1="58.33333333333333" x2="489.99999999999983" y2="70"></line><line x1="513.3333333333331" y1="70" x2="489.99999999999983" y2="81.66666666666667"></line><line x1="513.3333333333331" y1="81.66666666666667" x2="489.99999999999983" y2="93.33333333333334"></line><line stroke-dasharray="11.666666666666666 70" x1="489.99999999999983" y1="93.33333333333334" x2="513.3333333333331" y2="105.00000000000001"></line><line stroke-dasharray="11.666666666666666 70" x1="489.99999999999983" y1="140" x2="513.3333333333331" y2="151.66666666666666"></line><line x1="489.99999999999983" y1="151.66666666666666" x2="513.3333333333331" y2="163.33333333333331"></line><line stroke-dasharray="11.666666666666666 70" x1="489.99999999999983" y1="186.66666666666663" x2="513.3333333333331" y2="198.3333333333333"></line><line stroke-dasharray="11.666666666666666 70" x1="489.99999999999983" y1="198.3333333333333" x2="513.3333333333331" y2="209.99999999999994"></line><line x1="489.99999999999983" y1="221.6666666666666" x2="513.3333333333331" y2="233.33333333333326"></line><line x1="489.99999999999983" y1="233.33333333333326" x2="513.3333333333331" y2="244.99999999999991"></line><line x1="513.3333333333331" y1="244.99999999999991" x2="489.99999999999983" y2="256.6666666666666"></line><line stroke-dasharray="11.666666666666666 70" x1="513.3333333333331" y1="279.99999999999994" x2="489.99999999999983" y2="291.66666666666663"></line><line x1="489.99999999999983" y1="303.3333333333333" x2="513.3333333333331" y2="315"></line><line x1="489.99999999999983" y1="361.66666666666674" x2="513.3333333333331" y2="373.3333333333334"></line><line x1="489.99999999999983" y1="373.3333333333334" x2="513.3333333333331" y2="385.0000000000001"></line><line x1="513.3333333333331" y1="385.0000000000001" x2="489.99999999999983" y2="396.6666666666668"></line><line x1="489.99999999999983" y1="396.6666666666668" x2="513.3333333333331" y2="408.3333333333335"></line><line x1="489.99999999999983" y1="408.3333333333335" x2="513.3333333333331" y2="420.00000000000017"></line><line x1="489.99999999999983" y1="420.00000000000017" x2="513.3333333333331" y2="431.66666666666686"></line><line x1="513.3333333333331" y1="431.66666666666686" x2="489.99999999999983" y2="443.33333333333354"></line><line x1="489.99999999999983" y1="443.33333333333354" x2="513.3333333333331" y2="455.0000000000002"></line><line x1="513.3333333333331" y1="466.6666666666669" x2="489.99999999999983" y2="478.3333333333336"></line><line stroke-dasharray="11.666666666666666 70" x1="489.99999999999983" y1="478.3333333333336" x2="513.3333333333331" y2="490.0000000000003"></line><line x1="489.99999999999983" y1="525.0000000000002" x2="513.3333333333331" y2="536.6666666666669"></line><line x1="489.99999999999983" y1="536.6666666666669" x2="513.3333333333331" y2="548.3333333333335"></line><line x1="489.99999999999983" y1="548.3333333333335" x2="513.3333333333331" y2="560.0000000000001"></line><line x1="513.3333333333331" y1="560.0000000000001" x2="489.99999999999983" y2="571.6666666666667"></line><line x1="489.99999999999983" y1="583.3333333333334" x2="513.3333333333331" y2="595"></line><line x1="489.99999999999983" y1="618.3333333333333" x2="513.3333333333331" y2="629.9999999999999"></line><line x1="489.99999999999983" y1="641.6666666666665" x2="513.3333333333331" y2="653.3333333333331"></line><line x1="489.99999999999983" y1="653.3333333333331" x2="513.3333333333331" y2="664.9999999999998"></line><line x1="513.3333333333331" y1="664.9999999999998" x2="489.99999999999983" y2="676.6666666666664"></line><line x1="489.99999999999983" y1="688.333333333333" x2="513.3333333333331" y2="699.9999999999997"></line><line stroke-dasharray="11.666666666666666 70" x1="513.3333333333331" y1="0" x2="536.6666666666665" y2="11.666666666666666"></line><line x1="513.3333333333331" y1="23.333333333333332" x2="536.6666666666665" y2="35"></line><line x1="513.3333333333331" y1="35" x2="536.6666666666665" y2="46.666666666666664"></line><line x1="513.3333333333331" y1="81.66666666666667" x2="536.6666666666665" y2="93.33333333333334"></line><line x1="513.3333333333331" y1="116.66666666666669" x2="536.6666666666665" y2="128.33333333333334"></line><line x1="513.3333333333331" y1="128.33333333333334" x2="536.6666666666665" y2="140"></line><line x1="513.3333333333331" y1="174.99999999999997" x2="536.6666666666665" y2="186.66666666666663"></line><line x1="513.3333333333331" y1="186.66666666666663" x2="536.6666666666665" y2="198.3333333333333"></line><line stroke-dasharray="11.666666666666666 70" x1="513.3333333333331" y1="256.6666666666666" x2="536.6666666666665" y2="268.33333333333326"></line><line x1="513.3333333333331" y1="303.3333333333333" x2="536.6666666666665" y2="315"></line><line x1="536.6666666666665" y1="315" x2="513.3333333333331" y2="326.6666666666667"></line><line x1="513.3333333333331" y1="326.6666666666667" x2="536.6666666666665" y2="338.33333333333337"></line><line x1="513.3333333333331" y1="338.33333333333337" x2="536.6666666666665" y2="350.00000000000006"></line><line x1="513.3333333333331" y1="350.00000000000006" x2="536.6666666666665" y2="361.66666666666674"></line><line x1="513.3333333333331" y1="373.3333333333334" x2="536.6666666666665" y2="385.0000000000001"></line><line x1="513.3333333333331" y1="385.0000000000001" x2="536.6666666666665" y2="396.6666666666668"></line><line stroke-dasharray="11.666666666666666 70" x1="513.3333333333331" y1="396.6666666666668" x2="536.6666666666665" y2="408.3333333333335"></line><line x1="513.3333333333331" y1="420.00000000000017" x2="536.6666666666665" y2="431.66666666666686"></line><line x1="513.3333333333331" y1="443.33333333333354" x2="536.6666666666665" y2="455.0000000000002"></line><line x1="513.3333333333331" y1="490.0000000000003" x2="536.6666666666665" y2="501.66666666666697"></line><line x1="536.6666666666665" y1="513.3333333333336" x2="513.3333333333331" y2="525.0000000000002"></line><line stroke-dasharray="11.666666666666666 70" x1="513.3333333333331" y1="525.0000000000002" x2="536.6666666666665" y2="536.6666666666669"></line><line stroke-dasharray="11.666666666666666 70" x1="536.6666666666665" y1="560.0000000000001" x2="513.3333333333331" y2="571.6666666666667"></line><line stroke-dasharray="11.666666666666666 70" x1="513.3333333333331" y1="571.6666666666667" x2="536.6666666666665" y2="583.3333333333334"></line><line x1="513.3333333333331" y1="583.3333333333334" x2="536.6666666666665" y2="595"></line><line x1="513.3333333333331" y1="606.6666666666666" x2="536.6666666666665" y2="618.3333333333333"></line><line stroke-dasharray="11.666666666666666 70" x1="536.6666666666665" y1="618.3333333333333" x2="513.3333333333331" y2="629.9999999999999"></line><line x1="513.3333333333331" y1="653.3333333333331" x2="536.6666666666665" y2="664.9999999999998"></line><line stroke-dasharray="11.666666666666666 70" x1="513.3333333333331" y1="676.6666666666664" x2="536.6666666666665" y2="688.333333333333"></line><line x1="536.6666666666665" y1="0" x2="559.9999999999999" y2="11.666666666666666"></line><line x1="559.9999999999999" y1="11.666666666666666" x2="536.6666666666665" y2="23.333333333333332"></line><line x1="559.9999999999999" y1="35" x2="536.6666666666665" y2="46.666666666666664"></line><line stroke-dasharray="11.666666666666666 70" x1="536.6666666666665" y1="46.666666666666664" x2="559.9999999999999" y2="58.33333333333333"></line><line x1="536.6666666666665" y1="70" x2="559.9999999999999" y2="81.66666666666667"></line><line stroke-dasharray="11.666666666666666 70" x1="559.9999999999999" y1="93.33333333333334" x2="536.6666666666665" y2="105.00000000000001"></line><line stroke-dasharray="11.666666666666666 70" x1="536.6666666666665" y1="163.33333333333331" x2="559.9999999999999" y2="174.99999999999997"></line><line x1="559.9999999999999" y1="174.99999999999997" x2="536.6666666666665" y2="186.66666666666663"></line><line x1="559.9999999999999" y1="186.66666666666663" x2="536.6666666666665" y2="198.3333333333333"></line><line stroke-dasharray="11.666666666666666 70" x1="536.6666666666665" y1="244.99999999999991" x2="559.9999999999999" y2="256.6666666666666"></line><line x1="559.9999999999999" y1="279.99999999999994" x2="536.6666666666665" y2="291.66666666666663"></line><line stroke-dasharray="11.666666666666666 70" x1="559.9999999999999" y1="303.3333333333333" x2="536.6666666666665" y2="315"></line><line stroke-dasharray="11.666666666666666 70" x1="536.6666666666665" y1="315" x2="559.9999999999999" y2="326.6666666666667"></line><line x1="536.6666666666665" y1="350.00000000000006" x2="559.9999999999999" y2="361.66666666666674"></line><line x1="559.9999999999999" y1="373.3333333333334" x2="536.6666666666665" y2="385.0000000000001"></line><line x1="536.6666666666665" y1="385.0000000000001" x2="559.9999999999999" y2="396.6666666666668"></line><line x1="559.9999999999999" y1="431.66666666666686" x2="536.6666666666665" y2="443.33333333333354"></line><line x1="536.6666666666665" y1="455.0000000000002" x2="559.9999999999999" y2="466.6666666666669"></line><line x1="536.6666666666665" y1="501.66666666666697" x2="559.9999999999999" y2="513.3333333333336"></line><line x1="559.9999999999999" y1="513.3333333333336" x2="536.6666666666665" y2="525.0000000000002"></line><line x1="536.6666666666665" y1="583.3333333333334" x2="559.9999999999999" y2="595"></line><line x1="559.9999999999999" y1="595" x2="536.6666666666665" y2="606.6666666666666"></line><line x1="536.6666666666665" y1="606.6666666666666" x2="559.9999999999999" y2="618.3333333333333"></line><line x1="536.6666666666665" y1="653.3333333333331" x2="559.9999999999999" y2="664.9999999999998"></line><line x1="536.6666666666665" y1="664.9999999999998" x2="559.9999999999999" y2="676.6666666666664"></line><line x1="559.9999999999999" y1="676.6666666666664" x2="536.6666666666665" y2="688.333333333333"></line><line x1="536.6666666666665" y1="688.333333333333" x2="559.9999999999999" y2="699.9999999999997"></line><line x1="583.3333333333333" y1="0" x2="559.9999999999999" y2="11.666666666666666"></line><line x1="559.9999999999999" y1="11.666666666666666" x2="583.3333333333333" y2="23.333333333333332"></line><line x1="559.9999999999999" y1="23.333333333333332" x2="583.3333333333333" y2="35"></line><line x1="559.9999999999999" y1="35" x2="583.3333333333333" y2="46.666666666666664"></line><line x1="583.3333333333333" y1="70" x2="559.9999999999999" y2="81.66666666666667"></line><line x1="559.9999999999999" y1="81.66666666666667" x2="583.3333333333333" y2="93.33333333333334"></line><line x1="559.9999999999999" y1="116.66666666666669" x2="583.3333333333333" y2="128.33333333333334"></line><line stroke-dasharray="11.666666666666666 70" x1="583.3333333333333" y1="151.66666666666666" x2="559.9999999999999" y2="163.33333333333331"></line><line x1="583.3333333333333" y1="198.3333333333333" x2="559.9999999999999" y2="209.99999999999994"></line><line x1="559.9999999999999" y1="256.6666666666666" x2="583.3333333333333" y2="268.33333333333326"></line><line x1="583.3333333333333" y1="279.99999999999994" x2="559.9999999999999" y2="291.66666666666663"></line><line x1="583.3333333333333" y1="303.3333333333333" x2="559.9999999999999" y2="315"></line><line stroke-dasharray="11.666666666666666 70" x1="559.9999999999999" y1="373.3333333333334" x2="583.3333333333333" y2="385.0000000000001"></line><line x1="583.3333333333333" y1="420.00000000000017" x2="559.9999999999999" y2="431.66666666666686"></line><line x1="583.3333333333333" y1="431.66666666666686" x2="559.9999999999999" y2="443.33333333333354"></line><line stroke-dasharray="11.666666666666666 70" x1="583.3333333333333" y1="443.33333333333354" x2="559.9999999999999" y2="455.0000000000002"></line><line x1="583.3333333333333" y1="455.0000000000002" x2="559.9999999999999" y2="466.6666666666669"></line><line stroke-dasharray="11.666666666666666 70" x1="583.3333333333333" y1="478.3333333333336" x2="559.9999999999999" y2="490.0000000000003"></line><line x1="559.9999999999999" y1="490.0000000000003" x2="583.3333333333333" y2="501.66666666666697"></line><line x1="559.9999999999999" y1="525.0000000000002" x2="583.3333333333333" y2="536.6666666666669"></line><line x1="559.9999999999999" y1="548.3333333333335" x2="583.3333333333333" y2="560.0000000000001"></line><line x1="559.9999999999999" y1="571.6666666666667" x2="583.3333333333333" y2="583.3333333333334"></line><line x1="583.3333333333333" y1="595" x2="559.9999999999999" y2="606.6666666666666"></line><line x1="583.3333333333333" y1="629.9999999999999" x2="559.9999999999999" y2="641.6666666666665"></line><line x1="559.9999999999999" y1="641.6666666666665" x2="583.3333333333333" y2="653.3333333333331"></line><line x1="583.3333333333333" y1="653.3333333333331" x2="559.9999999999999" y2="664.9999999999998"></line><line x1="583.3333333333333" y1="0" x2="606.6666666666666" y2="11.666666666666666"></line><line stroke-dasharray="11.666666666666666 70" x1="583.3333333333333" y1="23.333333333333332" x2="606.6666666666666" y2="35"></line><line stroke-dasharray="11.666666666666666 70" x1="583.3333333333333" y1="46.666666666666664" x2="606.6666666666666" y2="58.33333333333333"></line><line x1="606.6666666666666" y1="58.33333333333333" x2="583.3333333333333" y2="70"></line><line x1="606.6666666666666" y1="70" x2="583.3333333333333" y2="81.66666666666667"></line><line x1="606.6666666666666" y1="116.66666666666669" x2="583.3333333333333" y2="128.33333333333334"></line><line x1="583.3333333333333" y1="151.66666666666666" x2="606.6666666666666" y2="163.33333333333331"></line><line x1="606.6666666666666" y1="198.3333333333333" x2="583.3333333333333" y2="209.99999999999994"></line><line x1="583.3333333333333" y1="209.99999999999994" x2="606.6666666666666" y2="221.6666666666666"></line><line x1="583.3333333333333" y1="233.33333333333326" x2="606.6666666666666" y2="244.99999999999991"></line><line stroke-dasharray="11.666666666666666 70" x1="583.3333333333333" y1="244.99999999999991" x2="606.6666666666666" y2="256.6666666666666"></line><line x1="583.3333333333333" y1="291.66666666666663" x2="606.6666666666666" y2="303.3333333333333"></line><line x1="583.3333333333333" y1="303.3333333333333" x2="606.6666666666666" y2="315"></line><line x1="606.6666666666666" y1="361.66666666666674" x2="583.3333333333333" y2="373.3333333333334"></line><line x1="583.3333333333333" y1="408.3333333333335" x2="606.6666666666666" y2="420.00000000000017"></line><line x1="606.6666666666666" y1="420.00000000000017" x2="583.3333333333333" y2="431.66666666666686"></line><line x1="583.3333333333333" y1="455.0000000000002" x2="606.6666666666666" y2="466.6666666666669"></line><line x1="583.3333333333333" y1="478.3333333333336" x2="606.6666666666666" y2="490.0000000000003"></line><line x1="606.6666666666666" y1="501.66666666666697" x2="583.3333333333333" y2="513.3333333333336"></line><line x1="606.6666666666666" y1="536.6666666666669" x2="583.3333333333333" y2="548.3333333333335"></line><line x1="583.3333333333333" y1="548.3333333333335" x2="606.6666666666666" y2="560.0000000000001"></line><line x1="583.3333333333333" y1="560.0000000000001" x2="606.6666666666666" y2="571.6666666666667"></line><line x1="583.3333333333333" y1="571.6666666666667" x2="606.6666666666666" y2="583.3333333333334"></line><line x1="606.6666666666666" y1="583.3333333333334" x2="583.3333333333333" y2="595"></line><line stroke-dasharray="11.666666666666666 70" x1="583.3333333333333" y1="595" x2="606.6666666666666" y2="606.6666666666666"></line><line x1="583.3333333333333" y1="606.6666666666666" x2="606.6666666666666" y2="618.3333333333333"></line><line x1="606.6666666666666" y1="618.3333333333333" x2="583.3333333333333" y2="629.9999999999999"></line><line x1="606.6666666666666" y1="46.666666666666664" x2="630" y2="58.33333333333333"></line><line x1="606.6666666666666" y1="93.33333333333334" x2="630" y2="105.00000000000001"></line><line x1="606.6666666666666" y1="105.00000000000001" x2="630" y2="116.66666666666669"></line><line x1="630" y1="116.66666666666669" x2="606.6666666666666" y2="128.33333333333334"></line><line x1="606.6666666666666" y1="128.33333333333334" x2="630" y2="140"></line><line x1="606.6666666666666" y1="163.33333333333331" x2="630" y2="174.99999999999997"></line><line stroke-dasharray="11.666666666666666 70" x1="606.6666666666666" y1="186.66666666666663" x2="630" y2="198.3333333333333"></line><line x1="630" y1="198.3333333333333" x2="606.6666666666666" y2="209.99999999999994"></line><line stroke-dasharray="11.666666666666666 70" x1="606.6666666666666" y1="256.6666666666666" x2="630" y2="268.33333333333326"></line><line x1="606.6666666666666" y1="268.33333333333326" x2="630" y2="279.99999999999994"></line><line x1="630" y1="291.66666666666663" x2="606.6666666666666" y2="303.3333333333333"></line><line x1="606.6666666666666" y1="361.66666666666674" x2="630" y2="373.3333333333334"></line><line x1="606.6666666666666" y1="373.3333333333334" x2="630" y2="385.0000000000001"></line><line x1="630" y1="385.0000000000001" x2="606.6666666666666" y2="396.6666666666668"></line><line x1="606.6666666666666" y1="408.3333333333335" x2="630" y2="420.00000000000017"></line><line x1="630" y1="420.00000000000017" x2="606.6666666666666" y2="431.66666666666686"></line><line x1="606.6666666666666" y1="431.66666666666686" x2="630" y2="443.33333333333354"></line><line x1="606.6666666666666" y1="443.33333333333354" x2="630" y2="455.0000000000002"></line><line x1="606.6666666666666" y1="501.66666666666697" x2="630" y2="513.3333333333336"></line><line x1="630" y1="525.0000000000002" x2="606.6666666666666" y2="536.6666666666669"></line><line x1="606.6666666666666" y1="548.3333333333335" x2="630" y2="560.0000000000001"></line><line x1="606.6666666666666" y1="571.6666666666667" x2="630" y2="583.3333333333334"></line><line x1="630" y1="606.6666666666666" x2="606.6666666666666" y2="618.3333333333333"></line><line x1="606.6666666666666" y1="618.3333333333333" x2="630" y2="629.9999999999999"></line><line x1="630" y1="676.6666666666664" x2="606.6666666666666" y2="688.333333333333"></line><line x1="606.6666666666666" y1="688.333333333333" x2="630" y2="699.9999999999997"></line><line x1="630" y1="0" x2="653.3333333333334" y2="11.666666666666666"></line><line x1="653.3333333333334" y1="23.333333333333332" x2="630" y2="35"></line><line x1="653.3333333333334" y1="58.33333333333333" x2="630" y2="70"></line><line x1="630" y1="70" x2="653.3333333333334" y2="81.66666666666667"></line><line x1="653.3333333333334" y1="81.66666666666667" x2="630" y2="93.33333333333334"></line><line stroke-dasharray="11.666666666666666 70" x1="653.3333333333334" y1="105.00000000000001" x2="630" y2="116.66666666666669"></line><line stroke-dasharray="11.666666666666666 70" x1="653.3333333333334" y1="128.33333333333334" x2="630" y2="140"></line><line x1="630" y1="186.66666666666663" x2="653.3333333333334" y2="198.3333333333333"></line><line x1="630" y1="209.99999999999994" x2="653.3333333333334" y2="221.6666666666666"></line><line x1="630" y1="221.6666666666666" x2="653.3333333333334" y2="233.33333333333326"></line><line stroke-dasharray="11.666666666666666 70" x1="653.3333333333334" y1="279.99999999999994" x2="630" y2="291.66666666666663"></line><line x1="630" y1="303.3333333333333" x2="653.3333333333334" y2="315"></line><line x1="630" y1="326.6666666666667" x2="653.3333333333334" y2="338.33333333333337"></line><line stroke-dasharray="11.666666666666666 70" x1="630" y1="338.33333333333337" x2="653.3333333333334" y2="350.00000000000006"></line><line x1="653.3333333333334" y1="373.3333333333334" x2="630" y2="385.0000000000001"></line><line x1="630" y1="443.33333333333354" x2="653.3333333333334" y2="455.0000000000002"></line><line x1="630" y1="455.0000000000002" x2="653.3333333333334" y2="466.6666666666669"></line><line x1="653.3333333333334" y1="466.6666666666669" x2="630" y2="478.3333333333336"></line><line x1="630" y1="490.0000000000003" x2="653.3333333333334" y2="501.66666666666697"></line><line x1="630" y1="525.0000000000002" x2="653.3333333333334" y2="536.6666666666669"></line><line x1="630" y1="606.6666666666666" x2="653.3333333333334" y2="618.3333333333333"></line><line x1="630" y1="618.3333333333333" x2="653.3333333333334" y2="629.9999999999999"></line><line x1="630" y1="653.3333333333331" x2="653.3333333333334" y2="664.9999999999998"></line><line x1="630" y1="676.6666666666664" x2="653.3333333333334" y2="688.333333333333"></line><line x1="630" y1="688.333333333333" x2="653.3333333333334" y2="699.9999999999997"></line><line stroke-dasharray="11.666666666666666 70" x1="676.6666666666667" y1="11.666666666666666" x2="653.3333333333334" y2="23.333333333333332"></line><line x1="653.3333333333334" y1="23.333333333333332" x2="676.6666666666667" y2="35"></line><line x1="653.3333333333334" y1="35" x2="676.6666666666667" y2="46.666666666666664"></line><line stroke-dasharray="11.666666666666666 70" x1="653.3333333333334" y1="46.666666666666664" x2="676.6666666666667" y2="58.33333333333333"></line><line stroke-dasharray="11.666666666666666 70" x1="653.3333333333334" y1="70" x2="676.6666666666667" y2="81.66666666666667"></line><line x1="676.6666666666667" y1="128.33333333333334" x2="653.3333333333334" y2="140"></line><line x1="676.6666666666667" y1="140" x2="653.3333333333334" y2="151.66666666666666"></line><line x1="676.6666666666667" y1="174.99999999999997" x2="653.3333333333334" y2="186.66666666666663"></line><line x1="676.6666666666667" y1="186.66666666666663" x2="653.3333333333334" y2="198.3333333333333"></line><line x1="676.6666666666667" y1="198.3333333333333" x2="653.3333333333334" y2="209.99999999999994"></line><line stroke-dasharray="11.666666666666666 70" x1="653.3333333333334" y1="209.99999999999994" x2="676.6666666666667" y2="221.6666666666666"></line><line stroke-dasharray="11.666666666666666 70" x1="653.3333333333334" y1="221.6666666666666" x2="676.6666666666667" y2="233.33333333333326"></line><line x1="676.6666666666667" y1="279.99999999999994" x2="653.3333333333334" y2="291.66666666666663"></line><line x1="653.3333333333334" y1="291.66666666666663" x2="676.6666666666667" y2="303.3333333333333"></line><line x1="653.3333333333334" y1="315" x2="676.6666666666667" y2="326.6666666666667"></line><line x1="676.6666666666667" y1="326.6666666666667" x2="653.3333333333334" y2="338.33333333333337"></line><line x1="653.3333333333334" y1="338.33333333333337" x2="676.6666666666667" y2="350.00000000000006"></line><line x1="676.6666666666667" y1="361.66666666666674" x2="653.3333333333334" y2="373.3333333333334"></line><line stroke-dasharray="11.666666666666666 70" x1="653.3333333333334" y1="396.6666666666668" x2="676.6666666666667" y2="408.3333333333335"></line><line x1="676.6666666666667" y1="420.00000000000017" x2="653.3333333333334" y2="431.66666666666686"></line><line x1="653.3333333333334" y1="431.66666666666686" x2="676.6666666666667" y2="443.33333333333354"></line><line x1="653.3333333333334" y1="455.0000000000002" x2="676.6666666666667" y2="466.6666666666669"></line><line x1="676.6666666666667" y1="466.6666666666669" x2="653.3333333333334" y2="478.3333333333336"></line><line x1="653.3333333333334" y1="478.3333333333336" x2="676.6666666666667" y2="490.0000000000003"></line><line x1="676.6666666666667" y1="490.0000000000003" x2="653.3333333333334" y2="501.66666666666697"></line><line x1="676.6666666666667" y1="501.66666666666697" x2="653.3333333333334" y2="513.3333333333336"></line><line stroke-dasharray="11.666666666666666 70" x1="653.3333333333334" y1="536.6666666666669" x2="676.6666666666667" y2="548.3333333333335"></line><line stroke-dasharray="11.666666666666666 70" x1="653.3333333333334" y1="548.3333333333335" x2="676.6666666666667" y2="560.0000000000001"></line><line x1="653.3333333333334" y1="560.0000000000001" x2="676.6666666666667" y2="571.6666666666667"></line><line x1="653.3333333333334" y1="583.3333333333334" x2="676.6666666666667" y2="595"></line><line x1="653.3333333333334" y1="595" x2="676.6666666666667" y2="606.6666666666666"></line><line x1="676.6666666666667" y1="653.3333333333331" x2="653.3333333333334" y2="664.9999999999998"></line><line x1="676.6666666666667" y1="0" x2="700.0000000000001" y2="11.666666666666666"></line><line stroke-dasharray="11.666666666666666 70" x1="676.6666666666667" y1="11.666666666666666" x2="700.0000000000001" y2="23.333333333333332"></line><line x1="676.6666666666667" y1="46.666666666666664" x2="700.0000000000001" y2="58.33333333333333"></line><line x1="676.6666666666667" y1="58.33333333333333" x2="700.0000000000001" y2="70"></line><line stroke-dasharray="11.666666666666666 70" x1="676.6666666666667" y1="93.33333333333334" x2="700.0000000000001" y2="105.00000000000001"></line><line stroke-dasharray="11.666666666666666 70" x1="700.0000000000001" y1="116.66666666666669" x2="676.6666666666667" y2="128.33333333333334"></line><line stroke-dasharray="11.666666666666666 70" x1="676.6666666666667" y1="151.66666666666666" x2="700.0000000000001" y2="163.33333333333331"></line><line stroke-dasharray="11.666666666666666 70" x1="676.6666666666667" y1="163.33333333333331" x2="700.0000000000001" y2="174.99999999999997"></line><line x1="676.6666666666667" y1="186.66666666666663" x2="700.0000000000001" y2="198.3333333333333"></line><line x1="676.6666666666667" y1="221.6666666666666" x2="700.0000000000001" y2="233.33333333333326"></line><line x1="676.6666666666667" y1="244.99999999999991" x2="700.0000000000001" y2="256.6666666666666"></line><line x1="676.6666666666667" y1="279.99999999999994" x2="700.0000000000001" y2="291.66666666666663"></line><line stroke-dasharray="11.666666666666666 70" x1="676.6666666666667" y1="350.00000000000006" x2="700.0000000000001" y2="361.66666666666674"></line><line x1="676.6666666666667" y1="373.3333333333334" x2="700.0000000000001" y2="385.0000000000001"></line><line x1="676.6666666666667" y1="385.0000000000001" x2="700.0000000000001" y2="396.6666666666668"></line><line stroke-dasharray="11.666666666666666 70" x1="676.6666666666667" y1="396.6666666666668" x2="700.0000000000001" y2="408.3333333333335"></line><line x1="676.6666666666667" y1="408.3333333333335" x2="700.0000000000001" y2="420.00000000000017"></line><line stroke-dasharray="11.666666666666666 70" x1="676.6666666666667" y1="420.00000000000017" x2="700.0000000000001" y2="431.66666666666686"></line><line x1="700.0000000000001" y1="431.66666666666686" x2="676.6666666666667" y2="443.33333333333354"></line><line x1="700.0000000000001" y1="443.33333333333354" x2="676.6666666666667" y2="455.0000000000002"></line><line x1="676.6666666666667" y1="466.6666666666669" x2="700.0000000000001" y2="478.3333333333336"></line><line stroke-dasharray="11.666666666666666 70" x1="700.0000000000001" y1="478.3333333333336" x2="676.6666666666667" y2="490.0000000000003"></line><line x1="700.0000000000001" y1="490.0000000000003" x2="676.6666666666667" y2="501.66666666666697"></line><line x1="700.0000000000001" y1="513.3333333333336" x2="676.6666666666667" y2="525.0000000000002"></line><line x1="700.0000000000001" y1="548.3333333333335" x2="676.6666666666667" y2="560.0000000000001"></line><line x1="700.0000000000001" y1="560.0000000000001" x2="676.6666666666667" y2="571.6666666666667"></line><line x1="676.6666666666667" y1="595" x2="700.0000000000001" y2="606.6666666666666"></line><line x1="676.6666666666667" y1="618.3333333333333" x2="700.0000000000001" y2="629.9999999999999"></line><line x1="676.6666666666667" y1="629.9999999999999" x2="700.0000000000001" y2="641.6666666666665"></line><line x1="676.6666666666667" y1="653.3333333333331" x2="700.0000000000001" y2="664.9999999999998"></line><line x1="676.6666666666667" y1="676.6666666666664" x2="700.0000000000001" y2="688.333333333333"></line>
    </g>

  </g>
</svg>