<?xml version="1.0" encoding="UTF-8" standalone="no"?>
<svg
   xmlns:dc="http://purl.org/dc/elements/1.1/"
   xmlns:cc="http://creativecommons.org/ns#"
   xmlns:rdf="http://www.w3.org/1999/02/22-rdf-syntax-ns#"
   xmlns:svg="http://www.w3.org/2000/svg"
   xmlns="http://www.w3.org/2000/svg"
   xmlns:sodipodi="http://sodipodi.sourceforge.net/DTD/sodipodi-0.dtd"
   xmlns:inkscape="http://www.inkscape.org/namespaces/inkscape"
   version="1.1"
   x="0px"
   y="0px"
   viewBox="0 0 90 90"
   enable-background="new 0 0 100 100"
   xml:space="preserve"
   id="svg4"
   sodipodi:docname="external.svg"
   width="90"
   height="90"
   inkscape:version="0.92.4 (5da689c313, 2019-01-14)"><metadata
     id="metadata10"><rdf:RDF><cc:Work
         rdf:about=""><dc:format>image/svg+xml</dc:format><dc:type
           rdf:resource="http://purl.org/dc/dcmitype/StillImage" /></cc:Work></rdf:RDF></metadata><defs
     id="defs8" /><sodipodi:namedview
     pagecolor="#ffffff"
     bordercolor="#666666"
     borderopacity="1"
     objecttolerance="10"
     gridtolerance="10"
     guidetolerance="10"
     inkscape:pageopacity="0"
     inkscape:pageshadow="2"
     inkscape:window-width="1920"
     inkscape:window-height="1001"
     id="namedview6"
     showgrid="false"
     inkscape:zoom="2.36"
     inkscape:cx="45"
     inkscape:cy="45"
     inkscape:window-x="-9"
     inkscape:window-y="-9"
     inkscape:window-maximized="1"
     inkscape:current-layer="svg4" /><path
     d="M 45,0 C 20.1,0 0,20.2 0,45 0,69.9 20.1,90 45,90 69.9,90 90,69.9 90,45 90,20.2 69.9,0 45,0 Z m 26,40.4 c 0,1.9 -1.5,3.4 -3.4,3.4 -1.9,0 -3.3,-1.5 -3.3,-3.4 v -9.9 l -6.2,6.2 v 30.9 c 0,1.9 -1.5,3.3 -3.4,3.3 H 22.4 C 20.5,70.9 19,69.4 19,67.6 V 35.3 C 19,33.5 20.5,32 22.4,32 h 30.9 l 6.2,-6.2 h -9.9 c -1.9,0 -3.3,-1.5 -3.3,-3.4 0,-1.8 1.5,-3.3 3.3,-3.3 h 18 c 1.9,0 3.4,1.5 3.4,3.3 z M 36.2,53.8 c -1.3,-1.3 -1.3,-3.4 0,-4.7 L 46.6,38.7 H 25.8 V 64.3 H 51.4 V 43.4 L 40.9,53.8 c -1.3,1.3 -3.4,1.3 -4.7,0 z"
     id="path2"
     inkscape:connector-curvature="0" /></svg>