<svg viewBox="0 0 90 90" xml:space="preserve" xmlns="http://www.w3.org/2000/svg"><path d="M45 0C20.1 0 0 20.2 0 45c0 24.9 20.1 45 45 45s45-20.1 45-45C90 20.2 69.9 0 45 0zm26 40.4c0 1.9-1.5 3.4-3.4 3.4s-3.3-1.5-3.3-3.4v-9.9l-6.2 6.2v30.9c0 1.9-1.5 3.3-3.4 3.3H22.4c-1.9 0-3.4-1.5-3.4-3.3V35.3c0-1.8 1.5-3.3 3.4-3.3h30.9l6.2-6.2h-9.9c-1.9 0-3.3-1.5-3.3-3.4 0-1.8 1.5-3.3 3.3-3.3h18c1.9 0 3.4 1.5 3.4 3.3zM36.2 53.8a3.32 3.32 0 0 1 0-4.7l10.4-10.4H25.8v25.6h25.6V43.4L40.9 53.8a3.32 3.32 0 0 1-4.7 0z"/></svg>